<svg width="100" height="100" viewBox="0 0 100 100" fill="none" xmlns="http://www.w3.org/2000/svg">
<circle cx="50" cy="50" r="50" fill="#B0E3FF"/>
<g clip-path="url(#clip0)">
<path d="M26.6542 65.4395C29.1747 72.4702 25.2232 85.4099 25.2232 85.4099H48.0683V45.6567L22.9966 50.4622C22.997 50.4618 24.3753 59.0825 26.6542 65.4395Z" fill="#432B1F"/>
<path d="M69.5046 65.4395C66.9841 72.4702 70.936 85.4099 70.936 85.4099H48.0906V45.6567L73.1619 50.4622C73.1619 50.4618 71.7839 59.0825 69.5046 65.4395Z" fill="#432B1F"/>
<path d="M53.3689 68.8725H42.7679V80.7454H53.3689V68.8725Z" fill="#FDCC9B"/>
<path d="M42.7679 70.271C42.7679 70.271 47.2272 73.1107 53.3689 72.4529V68.8725H42.7679V70.271Z" fill="#FCBC85"/>
<path d="M27.4815 56.3633C30.3383 56.3633 32.6542 53.7211 32.6542 50.4618C32.6542 47.2025 30.3383 44.5603 27.4815 44.5603C24.6247 44.5603 22.3089 47.2025 22.3089 50.4618C22.3089 53.7211 24.6247 56.3633 27.4815 56.3633Z" fill="#FCBC85"/>
<path d="M68.655 56.3633C71.5118 56.3633 73.8276 53.7211 73.8276 50.4618C73.8276 47.2025 71.5118 44.5603 68.655 44.5603C65.7982 44.5603 63.4823 47.2025 63.4823 50.4618C63.4823 53.7211 65.7982 56.3633 68.655 56.3633Z" fill="#FCBC85"/>
<path d="M68.6341 39.19C68.6341 30.4976 62.2735 24.1366 48.0686 24.1366C33.863 24.1366 27.5028 30.4972 27.5028 39.19C27.5028 47.8829 26.0188 70.781 48.0686 70.781C70.1181 70.7806 68.6341 47.8829 68.6341 39.19Z" fill="#FDCC9B"/>
<path d="M38.0515 51.4871C39.281 51.4871 40.2777 50.3955 40.2777 49.0488C40.2777 47.7022 39.281 46.6106 38.0515 46.6106C36.822 46.6106 35.8253 47.7022 35.8253 49.0488C35.8253 50.3955 36.822 51.4871 38.0515 51.4871Z" fill="#3B2519"/>
<path d="M37.0806 48.6381C37.4483 48.6381 37.7464 48.34 37.7464 47.9723C37.7464 47.6047 37.4483 47.3066 37.0806 47.3066C36.7129 47.3066 36.4149 47.6047 36.4149 47.9723C36.4149 48.34 36.7129 48.6381 37.0806 48.6381Z" fill="white"/>
<path d="M34.4902 43.7918C35.5425 44.195 37.2332 42.4221 41.1021 43.9642C41.8075 44.2455 42.2288 41.5594 38.0811 41.5594C34.4902 41.5594 33.854 43.5484 34.4902 43.7918Z" fill="#51362A"/>
<path d="M58.3602 51.4871C59.5897 51.4871 60.5864 50.3955 60.5864 49.0488C60.5864 47.7022 59.5897 46.6106 58.3602 46.6106C57.1307 46.6106 56.1339 47.7022 56.1339 49.0488C56.1339 50.3955 57.1307 51.4871 58.3602 51.4871Z" fill="#3B2519"/>
<path d="M57.3897 48.6384C57.7575 48.6384 58.0558 48.3402 58.0558 47.9723C58.0558 47.6045 57.7575 47.3062 57.3897 47.3062C57.0218 47.3062 56.7236 47.6045 56.7236 47.9723C56.7236 48.3402 57.0218 48.6384 57.3897 48.6384Z" fill="white"/>
<path d="M61.6467 43.7918C60.594 44.195 58.904 42.4221 55.0344 43.9642C54.3293 44.2455 53.9081 41.5594 58.0558 41.5594C61.6467 41.5594 62.2825 43.5484 61.6467 43.7918Z" fill="#51362A"/>
<path d="M48.0683 57.6248C45.8684 57.6248 44.5434 55.9818 44.5434 56.7766C44.5434 57.5718 45.1795 59.0825 48.0683 59.0825C50.957 59.0825 51.5928 57.5718 51.5928 56.7766C51.5931 55.9818 50.2682 57.6248 48.0683 57.6248Z" fill="#FCBC85"/>
<path d="M48.0683 64.9354C47.3077 64.9354 46.8489 64.367 46.8489 64.6422C46.8489 64.9173 47.0689 65.4395 48.0683 65.4395C49.0676 65.4395 49.2876 64.9173 49.2876 64.6422C49.2876 64.367 48.8292 64.9354 48.0683 64.9354Z" fill="#FCBC85"/>
<path d="M48.0683 62.9097C44.5816 62.9097 42.4809 61.4902 42.4809 61.8497C42.4809 62.2097 43.4892 63.6255 48.0683 63.6255C52.6473 63.6255 53.6553 62.2097 53.6553 61.8497C53.6553 61.4898 51.5549 62.9097 48.0683 62.9097Z" fill="#F7945E"/>
<path d="M35.1884 59.8619C36.8571 59.8619 38.2098 58.5091 38.2098 56.8405C38.2098 55.1718 36.8571 53.819 35.1884 53.819C33.5197 53.819 32.1669 55.1718 32.1669 56.8405C32.1669 58.5091 33.5197 59.8619 35.1884 59.8619Z" fill="#F9AA8D"/>
<path d="M61.3196 59.8615C62.9881 59.8615 64.3406 58.5089 64.3406 56.8405C64.3406 55.172 62.9881 53.8194 61.3196 53.8194C59.6511 53.8194 58.2985 55.172 58.2985 56.8405C58.2985 58.5089 59.6511 59.8615 61.3196 59.8615Z" fill="#F9AA8D"/>
<path d="M48.0683 73.643V87.0004H24.8528C24.8528 81.5937 35.8772 73.643 48.0683 73.643Z" fill="#694B74"/>
<path d="M48.0683 73.643V87.0004H71.2833C71.2833 81.5937 60.2593 73.643 48.0683 73.643Z" fill="#694B74"/>
<path d="M47.9994 73.643C45.3772 73.643 42.6926 74.0054 40.0895 74.6239C40.1071 74.6467 42.9768 78.3075 47.9994 78.3075C52.6509 78.3075 55.743 75.1725 56.1913 74.6903C53.5009 74.03 50.7164 73.643 47.9994 73.643Z" fill="#563C60"/>
<path d="M42.7679 74.1053C42.7679 74.1053 44.3183 76.0283 48.0683 76.0283C51.8182 76.0283 53.3686 74.1053 53.3686 74.1053C53.3686 74.1053 47.8696 72.1031 42.7679 74.1053Z" fill="#FDCC9B"/>
<path d="M66.7259 20.8504C53.3686 4.94878 27.9266 11.3094 22.3085 33.2536C16.6908 55.1974 26.6542 65.4395 26.6542 65.4395C22.8336 52.5074 31.7428 39.137 39.3754 38.978C47.0083 38.8189 59.0934 34.5255 59.0934 34.5255C59.0934 34.5255 61.122 44.8477 67.6802 48.6381C72.6098 51.4871 70.7373 59.8619 69.465 65.4395C74.2352 63.6252 88.3517 27.3701 66.7259 20.8504Z" fill="#51362A"/>
</g>
<defs>
<clipPath id="clip0">
<rect x="12" y="12" width="75" height="75" fill="white"/>
</clipPath>
</defs>
</svg>
