<svg width="100" height="100" viewBox="0 0 100 100" fill="none" xmlns="http://www.w3.org/2000/svg">
<circle cx="50" cy="50" r="50" fill="#FBFF34" fill-opacity="0.83"/>
<path d="M55.1054 67.8296H43.8946V80.386H55.1054V67.8296Z" fill="#FDCC9B"/>
<path d="M43.8946 69.3086C43.8946 69.3086 48.6104 72.3117 55.1054 71.6164V67.8296H43.8946V69.3086Z" fill="#FCBC85"/>
<path d="M27.7291 54.6008C30.7503 54.6008 33.1994 51.8067 33.1994 48.3598C33.1994 44.913 30.7503 42.1188 27.7291 42.1188C24.708 42.1188 22.2589 44.913 22.2589 48.3598C22.2589 51.8067 24.708 54.6008 27.7291 54.6008Z" fill="#FCBC85"/>
<path d="M71.2709 54.6008C74.292 54.6008 76.7411 51.8067 76.7411 48.3598C76.7411 44.913 74.292 42.1188 71.2709 42.1188C68.2497 42.1188 65.8006 44.913 65.8006 48.3598C65.8006 51.8067 68.2497 54.6008 71.2709 54.6008Z" fill="#FCBC85"/>
<path d="M71.2491 36.4392C71.2491 27.2463 64.5226 20.5202 49.5002 20.5202C34.4778 20.5202 27.7512 27.2467 27.7512 36.4392C27.7512 45.6322 26.1818 69.8475 49.5002 69.8475C72.8185 69.8475 71.2491 45.6326 71.2491 36.4392Z" fill="#FDCC9B"/>
<path d="M38.9068 49.4441C40.207 49.4441 41.2611 48.2897 41.2611 46.8656C41.2611 45.4415 40.207 44.287 38.9068 44.287C37.6065 44.287 36.5525 45.4415 36.5525 46.8656C36.5525 48.2897 37.6065 49.4441 38.9068 49.4441Z" fill="#3B2519"/>
<path d="M37.8805 46.4312C38.2693 46.4312 38.5845 46.116 38.5845 45.7271C38.5845 45.3383 38.2693 45.0231 37.8805 45.0231C37.4917 45.0231 37.1765 45.3383 37.1765 45.7271C37.1765 46.116 37.4917 46.4312 37.8805 46.4312Z" fill="white"/>
<path d="M35.1406 40.4751C36.2539 41.0319 38.0414 38.5834 42.1333 40.7134C42.8793 41.1017 43.3244 37.3923 38.9384 37.3923C35.1406 37.3923 34.4678 40.1391 35.1406 40.4751Z" fill="#86461B"/>
<path d="M60.3842 49.4441C61.6844 49.4441 62.7385 48.2897 62.7385 46.8656C62.7385 45.4415 61.6844 44.287 60.3842 44.287C59.0839 44.287 58.0299 45.4415 58.0299 46.8656C58.0299 48.2897 59.0839 49.4441 60.3842 49.4441Z" fill="#3B2519"/>
<path d="M59.3579 46.4312C59.7467 46.4312 60.0619 46.116 60.0619 45.7271C60.0619 45.3383 59.7467 45.0231 59.3579 45.0231C58.969 45.0231 58.6538 45.3383 58.6538 45.7271C58.6538 46.116 58.969 46.4312 59.3579 46.4312Z" fill="white"/>
<path d="M63.8598 40.4751C62.7465 41.0319 60.9589 38.5834 56.867 40.7134C56.1211 41.1017 55.676 37.3923 60.0623 37.3923C63.8598 37.3923 64.5322 40.1391 63.8598 40.4751Z" fill="#86461B"/>
<path d="M49.5002 55.9349C47.1737 55.9349 45.7725 54.197 45.7725 55.0379C45.7725 55.8785 46.4453 57.4761 49.5002 57.4761C52.5551 57.4761 53.2279 55.8785 53.2279 55.0379C53.2279 54.1974 51.8263 55.9349 49.5002 55.9349Z" fill="#FCBC85"/>
<path d="M49.5002 63.666C48.6955 63.666 48.2107 63.065 48.2107 63.356C48.2107 63.647 48.4434 64.1996 49.5002 64.1996C50.557 64.1996 50.7893 63.647 50.7893 63.356C50.7893 63.065 50.3045 63.666 49.5002 63.666Z" fill="#FCBC85"/>
<path d="M49.5002 61.5238C45.8129 61.5238 43.5914 60.0223 43.5914 60.4029C43.5914 60.7831 44.6577 62.2808 49.5002 62.2808C54.3426 62.2808 55.409 60.7831 55.409 60.4029C55.4086 60.0219 53.1874 61.5238 49.5002 61.5238Z" fill="#F7945E"/>
<path d="M49.5002 72.8742V87H22.2585C22.2585 81.2826 36.6074 72.8742 49.5002 72.8742Z" fill="#D58E64"/>
<path d="M49.5002 72.8742V87H76.7415C76.7415 81.2826 62.3922 72.8742 49.5002 72.8742Z" fill="#D58E64"/>
<path d="M49.5002 72.8742C46.758 72.8742 43.9503 73.2575 41.2283 73.912C41.2466 73.936 44.2477 77.8071 49.5002 77.8071C54.3644 77.8071 57.5982 74.4921 58.0669 73.9818C55.253 73.2834 52.3411 72.8742 49.5002 72.8742Z" fill="#BF805A"/>
<path d="M43.8946 73.3632C43.8946 73.3632 45.5341 75.3967 49.4998 75.3967C53.4655 75.3967 55.1054 73.3632 55.1054 73.3632C55.1054 73.3632 49.2897 71.2461 43.8946 73.3632Z" fill="#FDCC9B"/>
<path d="M49.4998 65.0547V70.2678C37.7848 70.2678 33.9175 64.0215 32.7718 62.2804C31.9225 60.9887 38.2836 66.8205 43.8946 66.8205C46.361 66.8205 46.2489 65.0547 49.4998 65.0547Z" fill="#86461B"/>
<path d="M49.4998 65.0547V70.2678C61.2152 70.2678 65.0825 64.0215 66.2278 62.2804C67.0771 60.9887 60.716 66.8205 55.105 66.8205C52.639 66.8205 52.7511 65.0547 49.4998 65.0547Z" fill="#86461B"/>
<path d="M49.6474 30.3855V12C30.4416 12 26.8542 19.175 25.9572 32.6277C25.0602 46.0807 27.0854 50.7119 28.4271 50.6947C29.7688 50.6771 29.0476 35.2714 30.8901 31.9549C34.2535 25.9011 40.2657 30.3855 49.6474 30.3855Z" fill="#86461B"/>
<path d="M49.6474 30.3855V12C68.8533 12 72.4406 19.175 73.3376 32.6277C74.2346 46.0807 72.2095 50.7119 70.8677 50.6947C69.526 50.6771 70.2472 35.2714 68.4047 31.9549C65.0417 25.9011 59.0291 30.3855 49.6474 30.3855Z" fill="#86461B"/>
<path d="M37.9992 75C29.1427 77.8541 22 83.0651 22 87H38V75H37.9992Z" fill="#744A25"/>
<path d="M38.3732 87V74.1072C38.3732 74.1072 36.1871 74.9482 35.4305 75.3403L33.1993 86.9996H38.3732V87Z" fill="#573514"/>
<path d="M61.4422 74.9703C69.9112 77.8315 76.7415 83.0553 76.7415 87H61.4414V74.9703H61.4422Z" fill="#744A25"/>
<path d="M60.6268 87V74.1072C60.6268 74.1072 62.8129 74.9482 63.5695 75.3403L65.8006 86.9996H60.6268V87Z" fill="#573514"/>
</svg>
