<svg width="421" height="313" viewBox="0 0 421 313" fill="none" xmlns="http://www.w3.org/2000/svg">
<g clip-path="url(#clip0)">
<path d="M42.3467 31.3416C39.7265 32.4277 37.0373 33.8219 35.5974 36.2658C34.0723 38.8475 34.2548 42.0533 34.5387 45.0403C37.0129 70.9463 43.5311 98.4978 32.2754 121.964C26.8118 133.349 17.6734 142.472 10.4049 152.81C3.13631 163.149 -2.35161 176.058 1.02307 188.221C5.14408 203.082 20.5249 211.322 30.8923 222.759C37.6782 230.237 42.436 239.323 48.7676 247.19C55.0991 255.057 63.7752 261.987 73.883 262.449C88.4201 263.118 100.248 250.574 114.501 247.668C129.103 244.693 143.806 252.264 155.646 261.326C167.486 270.389 178.255 281.368 192.05 287.026C207.284 293.279 224.458 292.323 240.496 296.08C255.098 299.505 268.54 306.788 283.036 310.67C297.533 314.553 314.524 314.318 325.755 304.4C340.394 291.431 339.242 268.33 348.591 251.174C357.275 235.234 374.275 225.718 385.717 211.626C406.306 186.263 405.632 147.497 388.15 119.913C370.669 92.3293 339.003 75.6274 306.623 71.2786C292.021 69.3211 276.985 69.5886 262.946 65.1345C225.371 53.219 203.009 10.526 164.647 1.64204C140.261 -3.99551 116.545 5.76787 95.7738 17.7847C77.7444 28.2168 61.1103 23.5641 42.3467 31.3416Z" fill="#9BC9FF"/>
<path d="M78.9644 115.033C78.9644 115.033 65.1209 128.087 50.2633 128.476C44.0243 128.6 37.9938 130.744 33.0776 134.584C30.7538 136.42 28.6032 138.464 26.6527 140.692" stroke="#494785" stroke-width="2" stroke-miterlimit="10"/>
<path d="M17.2831 141.012C19.2787 139.999 26.8961 140.671 26.8961 140.671C26.8961 140.671 22.9454 147.217 20.9498 148.23C20.4719 148.513 19.9408 148.695 19.3896 148.765C18.8384 148.834 18.2787 148.79 17.7454 148.634C17.212 148.479 16.7163 148.216 16.289 147.861C15.8617 147.506 15.5119 147.067 15.2613 146.572C15.0107 146.076 14.8647 145.535 14.8323 144.98C14.7998 144.426 14.8817 143.871 15.0728 143.35C15.2639 142.829 15.5601 142.352 15.9431 141.95C16.3261 141.548 16.7877 141.228 17.2993 141.012H17.2831Z" fill="#494785"/>
<path d="M25.3021 129.441C27.5289 129.676 33.5562 134.377 33.5562 134.377C33.5562 134.377 26.6608 137.725 24.4543 137.494C23.422 137.338 22.4896 136.791 21.8511 135.965C21.2126 135.14 20.9172 134.1 21.0264 133.063C21.1356 132.025 21.641 131.07 22.4374 130.395C23.2338 129.721 24.2599 129.379 25.3021 129.441Z" fill="#494785"/>
<path d="M44.3171 120.115C46.118 121.441 48.9492 128.541 48.9492 128.541C48.9492 128.541 41.3196 127.962 39.5187 126.64C38.707 125.985 38.1793 125.042 38.0453 124.008C37.9112 122.974 38.1813 121.928 38.7992 121.088C39.4171 120.248 40.3353 119.678 41.363 119.497C42.3907 119.315 43.4487 119.537 44.3171 120.115Z" fill="#494785"/>
<path d="M60.2941 116.302C62.2938 117.303 66.285 123.824 66.285 123.824C66.285 123.824 58.6676 124.541 56.6679 123.54C56.1634 123.32 55.709 122.999 55.3324 122.598C54.9558 122.197 54.6649 121.723 54.4774 121.206C54.2899 120.689 54.2098 120.139 54.2419 119.59C54.274 119.041 54.4176 118.504 54.664 118.012C54.9104 117.52 55.2545 117.083 55.6753 116.728C56.096 116.374 56.5847 116.108 57.1114 115.948C57.6381 115.788 58.192 115.737 58.7391 115.798C59.2863 115.859 59.8154 116.03 60.2941 116.302Z" fill="#494785"/>
<path d="M37.7949 141.758C38.4601 139.622 36.5131 132.229 36.5131 132.229C36.5131 132.229 30.721 137.223 30.0558 139.358C29.8684 139.874 29.7876 140.422 29.8184 140.97C29.8492 141.517 29.9909 142.053 30.2349 142.544C30.479 143.036 30.8203 143.472 31.2382 143.828C31.6561 144.184 32.1419 144.451 32.6661 144.613C33.1904 144.776 33.7422 144.83 34.2882 144.773C34.8341 144.717 35.3629 144.55 35.8424 144.283C36.3219 144.016 36.7422 143.654 37.0778 143.22C37.4134 142.786 37.6574 142.289 37.7949 141.758Z" fill="#494785"/>
<path d="M56.4246 137.044C56.4246 134.807 52.3482 128.339 52.3482 128.339C52.3482 128.339 48.3164 134.823 48.3205 137.069C48.3237 138.143 48.7541 139.173 49.5171 139.931C50.28 140.689 51.313 141.112 52.3887 141.109C53.4645 141.106 54.4949 140.676 55.2533 139.914C56.0117 139.151 56.4359 138.119 56.4327 137.044H56.4246Z" fill="#494785"/>
<path d="M73.9024 130.008C74.2756 127.804 71.3552 120.739 71.3552 120.739C71.3552 120.739 66.281 126.462 65.9119 128.667C65.7872 129.701 66.066 130.744 66.6903 131.578C67.3147 132.413 68.2366 132.975 69.2648 133.148C70.293 133.321 71.3484 133.092 72.212 132.508C73.0755 131.924 73.6809 131.03 73.9024 130.012V130.008Z" fill="#494785"/>
<path d="M96.9532 80.4618C96.9532 80.4618 80.2785 71.3103 75.322 57.2914C73.2857 51.3964 69.3901 46.3207 64.2204 42.8267C61.7534 41.1864 59.1412 39.7755 56.4164 38.6117" stroke="#535461" stroke-width="2" stroke-miterlimit="10"/>
<path d="M53.2527 29.7968C54.8305 31.3814 56.53 38.8347 56.53 38.8347C56.53 38.8347 49.083 37.0919 47.5052 35.5032C46.8084 34.73 46.4359 33.7187 46.4648 32.6787C46.4937 31.6387 46.9217 30.6496 47.6604 29.9162C48.399 29.1829 49.3916 28.7614 50.4326 28.7392C51.4736 28.717 52.4833 29.0956 53.2527 29.7968Z" fill="#494785"/>
<path d="M66.7392 33.8618C67.2016 36.0503 64.5773 43.228 64.5773 43.228C64.5773 43.228 59.276 37.7201 58.8136 35.5275C58.6763 34.9973 58.6481 34.4447 58.7305 33.9032C58.813 33.3617 59.0044 32.8426 59.2932 32.3771C59.5821 31.9116 59.9623 31.5094 60.4111 31.1948C60.8598 30.8803 61.3677 30.6599 61.9041 30.5469C62.4404 30.434 62.9942 30.4309 63.5318 30.5377C64.0694 30.6446 64.5798 30.8592 65.032 31.1686C65.4843 31.478 65.8692 31.8759 66.1633 32.3381C66.4574 32.8003 66.6547 33.3172 66.7433 33.8577L66.7392 33.8618Z" fill="#494785"/>
<path d="M81.4629 49.0966C80.7572 51.2162 74.8636 56.0918 74.8636 56.0918C74.8636 56.0918 73.0708 48.6629 73.7766 46.5392C74.116 45.5181 74.8475 44.6734 75.8101 44.1912C76.7727 43.7089 77.8876 43.6285 78.9096 43.9676C79.9316 44.3068 80.7768 45.0377 81.2595 45.9995C81.7421 46.9614 81.8226 48.0754 81.4832 49.0966H81.4629Z" fill="#494785"/>
<path d="M90.0132 63.0992C89.6766 65.308 84.6916 71.1077 84.6916 71.1077C84.6916 71.1077 81.6657 64.0881 82.0024 61.8793C82.0585 61.3334 82.2249 60.8046 82.4917 60.3249C82.7584 59.8452 83.1198 59.4246 83.5541 59.0887C83.9883 58.7527 84.4863 58.5084 85.0179 58.3705C85.5494 58.2325 86.1035 58.2039 86.6464 58.2863C87.1894 58.3687 87.71 58.5605 88.1765 58.8499C88.6431 59.1393 89.0461 59.5204 89.3609 59.97C89.6757 60.4197 89.8958 60.9285 90.008 61.4657C90.1201 62.0029 90.1219 62.5572 90.0132 63.0951V63.0992Z" fill="#494785"/>
<path d="M58.8461 49.5301C61.085 49.5058 67.5261 45.38 67.5261 45.38C67.5261 45.38 60.9917 41.4082 58.7528 41.4325C57.677 41.4448 56.6503 41.8837 55.8983 42.6525C55.1464 43.4213 54.7309 44.4571 54.7433 45.532C54.7557 46.6069 55.1949 47.6328 55.9643 48.3841C56.7337 49.1355 57.7703 49.5506 58.8461 49.5382V49.5301Z" fill="#494785"/>
<path d="M69.0512 65.7984C71.1766 65.1054 76.0886 59.2449 76.0886 59.2449C76.0886 59.2449 68.6618 57.409 66.5364 58.102C66.0119 58.2516 65.523 58.5053 65.0989 58.848C64.6748 59.1907 64.3243 59.6154 64.0682 60.0966C63.8122 60.5778 63.6559 61.1056 63.6087 61.6486C63.5615 62.1916 63.6243 62.7384 63.7936 63.2566C63.9628 63.7747 64.2348 64.2534 64.5934 64.664C64.952 65.0746 65.3898 65.4088 65.8807 65.6465C66.3715 65.8841 66.9053 66.0204 67.45 66.0473C67.9948 66.0741 68.5394 65.9908 69.0512 65.8025V65.7984Z" fill="#494785"/>
<path d="M81.1384 80.251C83.3531 79.9268 89.1857 74.9823 89.1857 74.9823C89.1857 74.9823 82.1768 71.9183 79.9662 72.2425C79.4218 72.2986 78.8943 72.4642 78.4156 72.7293C77.9369 72.9944 77.5169 73.3536 77.1808 73.7853C76.8447 74.2169 76.5995 74.712 76.46 75.2408C76.3205 75.7696 76.2895 76.3212 76.3689 76.8623C76.4483 77.4034 76.6365 77.9228 76.9222 78.3893C77.2078 78.8558 77.585 79.2597 78.031 79.5766C78.477 79.8936 78.9826 80.1172 79.5173 80.2338C80.0521 80.3503 80.6049 80.3576 81.1425 80.2551L81.1384 80.251Z" fill="#494785"/>
<path d="M211.705 302.511C292.797 302.511 358.536 236.825 358.536 155.797C358.536 74.7688 292.797 9.08252 211.705 9.08252C130.612 9.08252 64.8734 74.7688 64.8734 155.797C64.8734 236.825 130.612 302.511 211.705 302.511Z" fill="url(#paint0_linear)"/>
<path d="M211.705 300.079C291.453 300.079 356.102 235.482 356.102 155.797C356.102 76.1118 291.453 11.5143 211.705 11.5143C131.956 11.5143 67.3071 76.1118 67.3071 155.797C67.3071 235.482 131.956 300.079 211.705 300.079Z" fill="#110F49"/>
<path d="M211.646 276.356C278.319 276.356 332.368 222.353 332.368 155.737C332.368 89.1203 278.319 35.1171 211.646 35.1171C144.973 35.1171 90.9238 89.1203 90.9238 155.737C90.9238 222.353 144.973 276.356 211.646 276.356Z" fill="#F3F3F3"/>
<g opacity="0.1">
<path opacity="0.1" d="M310.268 153.365H218.6V161.471H310.268V153.365Z" fill="black"/>
<path opacity="0.1" d="M153.881 123.039L150.118 130.22L207.797 160.401L211.56 153.22L153.881 123.039Z" fill="black"/>
<path opacity="0.1" d="M211.705 169.577C218.425 169.577 223.873 164.133 223.873 157.418C223.873 150.703 218.425 145.259 211.705 145.259C204.984 145.259 199.536 150.703 199.536 157.418C199.536 164.133 204.984 169.577 211.705 169.577Z" fill="black"/>
</g>
<path opacity="0.3" d="M214.95 61.3646H208.46V162.687H214.95V61.3646Z" fill="#110F49"/>
<path d="M310.268 151.744H218.6V159.85H310.268V151.744Z" fill="#110F49"/>
<path d="M211.587 151.608L153.908 121.427L150.145 128.608L207.823 158.789L211.587 151.608Z" fill="#110F49"/>
<path d="M211.705 167.955C218.425 167.955 223.873 162.512 223.873 155.797C223.873 149.082 218.425 143.638 211.705 143.638C204.984 143.638 199.536 149.082 199.536 155.797C199.536 162.512 204.984 167.955 211.705 167.955Z" fill="#110F49"/>
<path opacity="0.05" d="M237.08 99.8995C237.08 99.8995 237.823 103.417 237.08 104.528V99.8995Z" fill="black"/>
<path d="M390.733 180.061C390.733 180.061 373.763 197.019 383.343 222.179C392.924 247.339 366.924 289.181 366.924 289.181C366.924 289.181 367.204 289.141 367.735 289.051C402.589 282.903 419.905 243.076 400.525 213.486C393.301 202.482 387.387 189.578 390.733 180.061Z" fill="#78E296"/>
<path opacity="0.1" d="M390.733 180.345C390.733 180.345 373.763 197.302 383.343 222.463C392.924 247.623 366.924 289.461 366.924 289.461C366.924 289.461 367.204 289.42 367.735 289.331C402.589 283.183 419.905 243.355 400.525 213.765C393.301 202.766 387.387 189.861 390.733 180.345Z" fill="#78E296"/>
<path d="M390.733 180.061C390.733 180.061 381.153 200.845 390.733 217.802C400.314 234.759 392.356 282.344 366.92 289.181" stroke="white" stroke-miterlimit="10"/>
<path d="M420.959 248.644C420.959 248.644 401.596 245.564 399.831 262.902C398.067 280.241 362.584 282.644 362.584 282.644L363.249 283.086C392.534 302.296 420.534 295.321 416.311 269.813C414.754 260.333 414.883 250.809 420.959 248.644Z" fill="#21512E"/>
<path d="M420.959 248.644C420.959 248.644 405.927 251.939 407.169 265.598C408.41 279.256 384.86 295.625 362.6 282.648" stroke="white" stroke-miterlimit="10"/>
<path d="M403.924 285.566C403.924 285.566 388.673 282.519 384.604 278.454C380.536 274.389 362.235 267.28 360.203 272.374C358.171 277.469 332.751 294.726 350.034 297.774C367.317 300.821 390.705 301.827 395.787 299.8C400.869 297.774 403.924 285.566 403.924 285.566Z" fill="#A8A8A8"/>
<path opacity="0.2" d="M350.034 293.583C367.321 296.63 390.705 297.636 395.787 295.609C399.661 294.061 402.35 286.628 403.413 283.167L403.92 283.272C403.92 283.272 400.869 295.463 395.787 297.494C390.705 299.524 367.317 298.511 350.034 295.467C345.045 294.588 343.617 292.521 344.157 289.907C344.579 291.613 346.319 292.926 350.034 293.583Z" fill="black"/>
</g>
<defs>
<linearGradient id="paint0_linear" x1="211.705" y1="302.511" x2="211.705" y2="9.08252" gradientUnits="userSpaceOnUse">
<stop stop-color="#808080" stop-opacity="0.25"/>
<stop offset="0.54" stop-color="#808080" stop-opacity="0.12"/>
<stop offset="1" stop-color="#808080" stop-opacity="0.1"/>
</linearGradient>
<clipPath id="clip0">
<path d="M0 0H421V313H0V0Z" fill="white"/>
</clipPath>
</defs>
</svg>
