<svg width="597" height="437" viewBox="0 0 597 437" fill="none" xmlns="http://www.w3.org/2000/svg">
<g clip-path="url(#clip0)">
<path d="M333.229 430.081C451.869 430.081 548.046 333.804 548.046 215.041C548.046 96.2769 451.869 0 333.229 0C214.589 0 118.412 96.2769 118.412 215.041C118.412 333.804 214.589 430.081 333.229 430.081Z" fill="url(#paint0_linear)"/>
<path d="M164.691 41.7879L166.218 73.6557C172.548 82.1069 179.377 91.7779 186.116 102.318L187.079 53.7004L187.609 54.0401C179.814 48.4653 171.889 44.2 164.16 41.4926L164.691 41.7879Z" fill="#18820F"/>
<path d="M165.105 72.1752L163.626 41.3058C154.946 38.3425 146.525 37.3594 138.826 38.7338C138.426 38.8053 138.032 38.8876 137.639 38.9711C139.595 41.0717 150.994 53.4781 165.105 72.1752Z" fill="#18820F"/>
<path d="M235.191 110.195L235.703 110.684C233.599 106.723 231.369 102.872 229.013 99.1316L214.659 155.672L214.416 155.458C215.454 157.938 216.44 160.401 217.377 162.848L235.191 110.195Z" fill="#18820F"/>
<path d="M213.323 78.0504L213.852 78.4739C206.262 69.4726 197.635 61.4027 188.149 54.4329L187.168 103.977C193.44 113.884 199.055 123.643 204.014 133.253L213.323 78.0504Z" fill="#18820F"/>
<path d="M109.195 93.5182C110.001 101.869 111.649 110.117 114.112 118.136L199.711 126.974C195.242 118.725 190.629 110.986 186.151 103.932L109.413 94.1919L109.195 93.5182Z" fill="#18820F"/>
<path d="M117.226 127.383L116.995 126.711L203.63 134.42C202.583 132.37 201.525 130.348 200.455 128.353L114.54 119.482L114.314 118.809C115.18 121.635 116.15 124.494 117.226 127.383Z" fill="#18820F"/>
<path d="M228.038 97.9528L228.559 98.4125C224.263 91.6501 219.517 85.1855 214.352 79.0629L204.917 135.012C208.187 141.439 211.149 147.776 213.803 154.022L228.038 97.9528Z" fill="#18820F"/>
<path d="M226.205 191.414C229.648 206.329 230.953 220.431 230.092 233.565C234.936 223.232 253.361 180.423 246.474 140.527L226.205 191.414Z" fill="#18820F"/>
<path d="M133.118 157.537C137.703 163.718 142.695 169.585 148.063 175.098L147.854 174.351L224.918 190.221C222.913 181.893 220.411 173.692 217.425 165.664L133.118 157.537Z" fill="#18820F"/>
<path d="M164.44 72.6958C149.168 52.4706 137.117 39.6874 136.944 39.5044L137.143 39.0784C125.553 41.7122 117.37 49.6056 112.868 61.0306L164.44 72.6958Z" fill="#18820F"/>
<path d="M218.09 164.746C218.374 165.507 218.664 166.269 218.939 167.027C221.585 174.285 223.835 181.682 225.678 189.185L245.754 138.78L246.245 139.273C244.974 132.259 242.82 125.435 239.835 118.963C238.651 116.425 237.412 113.926 236.116 111.465L218.09 164.746Z" fill="#18820F"/>
<path d="M185.254 102.527C178.584 92.1113 171.833 82.5565 165.575 74.2048L112.82 62.2716L112.641 61.6051C109.347 70.2872 108.143 80.9531 109.141 92.8658L185.254 102.527Z" fill="#18820F"/>
<path d="M225.23 191.545L148.73 175.791C180.908 208.857 225.926 234.216 228.799 235.818C230.14 221.25 228.619 206.286 225.23 191.545Z" fill="#18820F"/>
<path d="M216.883 164.306L216.9 164.256C213.222 154.548 209.024 145.046 204.325 135.791L117.477 128.063C118.952 131.972 120.618 135.922 122.477 139.914C125.183 145.602 128.403 151.031 132.095 156.133L216.883 164.306Z" fill="#18820F"/>
<path d="M327.357 149.128L308.229 174.647C307.719 185.197 306.817 197.006 305.292 209.427L337.01 172.596L337.202 173.197C334.75 163.926 331.364 155.581 327.137 148.561L327.357 149.128Z" fill="#49A641"/>
<path d="M308.315 172.796L326.845 148.076C322.048 140.252 316.187 134.118 309.383 130.261C309.029 130.061 308.673 129.873 308.317 129.686C308.485 132.553 309.36 149.386 308.315 172.796Z" fill="#49A641"/>
<path d="M338.07 246.826L338.152 247.53C339.056 243.136 339.792 238.747 340.361 234.361L293.28 268.743L293.23 268.423C292.449 270.996 291.639 273.523 290.801 276.005L338.07 246.826Z" fill="#49A641"/>
<path d="M341.708 208.107L341.845 208.771C341.736 196.992 340.233 185.269 337.368 173.844L305.045 211.376C303.563 223.011 301.67 234.113 299.365 244.68L341.708 208.107Z" fill="#49A641"/>
<path d="M251.655 153.536C246.955 160.483 242.969 167.887 239.756 175.636L300.053 237.097C301.867 227.89 303.245 218.984 304.29 210.692L251.393 154.194L251.655 153.536Z" fill="#49A641"/>
<path d="M236.262 184.747L236.513 184.082L298.326 245.333C298.826 243.087 299.3 240.853 299.747 238.634L239.228 176.946L239.483 176.283C238.349 179.013 237.275 181.834 236.262 184.747Z" fill="#49A641"/>
<path d="M340.36 232.83L340.469 233.517C341.469 225.566 341.933 217.557 341.856 209.544L298.941 246.612C297.364 253.649 295.608 260.421 293.672 266.926L340.36 232.83Z" fill="#49A641"/>
<path d="M279.4 303.644C272.549 317.329 264.569 329.024 255.537 338.589C265.852 333.724 307.318 312.517 327.433 277.392L279.4 303.644Z" fill="#49A641"/>
<path d="M229.29 218.118C228.883 225.805 228.99 233.512 229.612 241.185L229.927 240.476L279.169 301.903C282.931 294.208 286.229 286.295 289.045 278.205L229.29 218.118Z" fill="#49A641"/>
<path d="M307.471 172.772C308.595 147.444 307.459 129.904 307.442 129.653L307.866 129.451C297.262 124.08 285.93 124.935 275.183 130.86L307.471 172.772Z" fill="#49A641"/>
<path d="M290.141 277.922C289.876 278.69 289.613 279.462 289.342 280.221C286.756 287.501 283.776 294.634 280.415 301.59L327.992 275.587L328.056 276.279C331.546 270.066 334.236 263.435 336.06 256.545C336.765 253.834 337.403 251.118 337.973 248.395L290.141 277.922Z" fill="#49A641"/>
<path d="M304.495 209.037C305.994 196.757 306.882 185.087 307.384 174.659L274.355 131.785L274.642 131.158C266.574 135.742 258.851 143.188 252.029 153L304.495 209.037Z" fill="#49A641"/>
<path d="M278.566 303.122L229.684 242.144C233.399 288.156 251.914 336.43 253.106 339.5C263.42 329.135 271.784 316.639 278.566 303.122Z" fill="#49A641"/>
<path d="M289.492 276.814L289.537 276.786C292.89 266.96 295.711 256.962 297.989 246.833L236.023 185.431C234.669 189.382 233.435 193.489 232.323 197.75C230.783 203.859 229.804 210.096 229.396 216.383L289.492 276.814Z" fill="#49A641"/>
<path d="M136.63 183.198L147.922 213.033C156.552 219.112 166.032 226.196 175.696 234.135L161.599 187.601L162.209 187.759C153.074 184.87 144.22 183.265 136.034 183.082L136.63 183.198Z" fill="#0D6024"/>
<path d="M146.407 211.969L135.468 183.069C126.299 182.937 117.986 184.608 111.089 188.297C110.73 188.489 110.381 188.689 110.033 188.89C112.542 190.282 127.213 198.554 146.407 211.969Z" fill="#0D6024"/>
<path d="M224.799 226.441L225.437 226.748C222.214 223.633 218.904 220.66 215.508 217.832L219.315 276.045L219.018 275.916C220.77 277.954 222.47 279.991 224.115 282.028L224.799 226.441Z" fill="#0D6024"/>
<path d="M194.077 202.638L194.71 202.877C184.714 196.664 174.017 191.659 162.844 187.966L177.209 235.387C186.232 242.869 194.586 250.413 202.269 258.018L194.077 202.638Z" fill="#0D6024"/>
<path d="M99.8243 249.567C103.17 257.259 107.283 264.593 112.101 271.458L196.238 253.377C189.441 246.915 182.665 240.982 176.228 235.66L100.239 250.14L99.8243 249.567Z" fill="#0D6024"/>
<path d="M117.918 279.289L117.492 278.721L202.264 259.246C200.636 257.621 199.005 256.025 197.371 254.459L112.924 272.606L112.501 272.035C114.198 274.456 116.003 276.874 117.918 279.289Z" fill="#0D6024"/>
<path d="M214.216 217.012L214.854 217.288C208.681 212.186 202.171 207.507 195.368 203.282L203.671 259.411C208.766 264.511 213.539 269.621 217.991 274.74L214.216 217.012Z" fill="#0D6024"/>
<path d="M241.333 306.464C249.212 319.583 254.808 332.591 258.044 345.348C259.461 334.022 263.765 287.609 244.896 251.797L241.333 306.464Z" fill="#0D6024"/>
<path d="M142.344 303.049C148.612 307.509 155.172 311.543 161.979 315.125L161.549 314.479L239.74 305.728C235.262 298.428 230.35 291.403 225.031 284.691L142.344 303.049Z" fill="#0D6024"/>
<path d="M145.935 212.67C125.165 198.161 109.758 189.733 109.536 189.612L109.593 189.146C99.3848 195.236 94.04 205.275 93.2859 217.534L145.935 212.67Z" fill="#0D6024"/>
<path d="M225.38 283.613C225.885 284.248 226.396 284.884 226.891 285.519C231.649 291.603 236.073 297.942 240.143 304.507L243.672 250.359L244.29 250.675C240.916 244.398 236.761 238.574 231.924 233.343C230.014 231.296 228.063 229.303 226.072 227.363L225.38 283.613Z" fill="#0D6024"/>
<path d="M174.941 234.601C165.381 226.759 156.01 219.761 147.48 213.755L93.6232 218.729L93.2473 218.151C92.796 227.427 94.9442 237.943 99.5711 248.963L174.941 234.601Z" fill="#0D6024"/>
<path d="M240.446 306.89L162.827 315.578C203.639 337.068 254.283 347.256 257.51 347.891C254.287 333.621 248.22 319.86 240.446 306.89Z" fill="#0D6024"/>
<path d="M224.097 283.568L224.097 283.515C217.602 275.421 210.675 267.683 203.348 260.334L118.367 279.857C120.977 283.118 123.781 286.36 126.781 289.582C131.112 294.153 135.85 298.32 140.936 302.03L224.097 283.568Z" fill="#0D6024"/>
<path d="M597 365.512C597 391.303 464.467 437 300.979 437C137.491 437 4.95764 391.303 4.95764 365.512C4.95764 339.722 137.491 343.604 300.979 343.604C464.467 343.604 597 339.722 597 365.512Z" fill="#3F3D56"/>
<path d="M597 365.512C597 391.303 464.467 437 300.979 437C137.491 437 4.95764 391.303 4.95764 365.512C4.95764 339.722 137.491 343.604 300.979 343.604C464.467 343.604 597 339.722 597 365.512Z" fill="#110F49"/>
<path d="M300.979 412.21C464.467 412.21 597 391.302 597 365.512C597 339.722 464.467 318.814 300.979 318.814C137.491 318.814 4.95764 339.722 4.95764 365.512C4.95764 391.302 137.491 412.21 300.979 412.21Z" fill="#494785"/>
<path opacity="0.1" d="M352.3 316.703C352.3 344.801 313.176 336.11 265.272 336.11C217.368 336.11 178.825 344.801 178.825 316.703C178.825 288.605 217.944 282.494 265.848 282.494C313.752 282.494 352.3 288.605 352.3 316.703Z" fill="black"/>
<path d="M352.3 309.785C352.3 337.882 313.176 329.192 265.272 329.192C217.368 329.192 178.825 337.882 178.825 309.785C178.825 281.687 217.944 275.576 265.848 275.576C313.752 275.576 352.3 281.687 352.3 309.785Z" fill="#36344D"/>
<path d="M198.195 232.47C199.249 231.72 200.411 231.136 201.643 230.74C209.449 227.832 217.629 226.049 225.936 225.446C233.159 224.933 240.988 225.542 246.63 230.087C247.508 230.731 248.226 231.569 248.73 232.535C249.439 234.068 249.224 235.85 248.995 237.525C248.943 238.174 248.779 238.81 248.511 239.403C247.752 240.85 245.883 241.357 244.259 241.184C242.636 241.01 241.112 240.322 239.511 240.004C238.52 239.831 237.517 239.728 236.512 239.698L226.468 239.153C220.222 238.815 213.894 238.482 207.768 239.744C205.882 240.083 204.06 240.712 202.365 241.608C200.966 242.394 200.024 243.523 198.725 242.07C196.444 239.518 195.181 234.828 198.195 232.47Z" fill="#2F2E41"/>
<path d="M213.759 236.916C213.759 236.916 227.268 230.854 232.392 237.849C237.516 244.844 229.597 242.046 229.597 242.046L220.746 244.844L210.964 242.979L213.759 236.916Z" fill="#F2F2F2"/>
<path d="M214.458 232.486C214.458 232.486 216.321 241.347 214.923 243.678C213.526 246.01 222.843 249.274 222.843 249.274L231.693 245.544C231.693 245.544 229.364 231.088 231.693 228.29L214.458 232.486Z" fill="#FFB9B9"/>
<path opacity="0.1" d="M214.458 232.486C214.458 232.486 216.321 241.347 214.923 243.678C213.526 246.01 222.843 249.274 222.843 249.274L231.693 245.544C231.693 245.544 229.364 231.088 231.693 228.29L214.458 232.486Z" fill="black"/>
<path d="M205.729 339.024C206.981 341.623 208.011 344.325 208.807 347.099C208.82 347.191 208.852 347.279 208.902 347.357C208.951 347.435 209.016 347.502 209.093 347.553C209.17 347.605 209.257 347.639 209.348 347.654C209.439 347.67 209.533 347.665 209.622 347.642L217.908 347.633C218.931 347.632 220.303 347.303 220.292 346.279C220.285 345.56 219.55 345.112 219.004 344.645C217.487 343.349 217.092 341.213 216.464 339.319C215.243 335.669 212.89 332.506 209.747 330.288C209.323 329.955 208.834 329.714 208.311 329.578C207.786 329.502 207.251 329.531 206.737 329.663C205.283 329.957 199.851 330.962 200.877 333.08C201.319 333.992 202.956 334.941 203.643 335.793C204.443 336.798 205.141 337.881 205.729 339.024Z" fill="#897B57"/>
<path d="M234.542 329.403C234.25 330.018 233.925 330.617 233.568 331.196C232.368 333.178 230.951 335.027 229.833 337.056C229.08 338.296 228.614 339.69 228.472 341.135C228.408 341.857 228.518 342.584 228.794 343.254C229.069 343.925 229.501 344.52 230.053 344.989C231.256 345.902 232.905 345.945 234.4 345.732C235.895 345.519 237.381 345.09 238.887 345.203C238.379 342.327 240.802 339.796 241.408 336.94C241.578 336.137 241.604 335.305 241.832 334.517C242.077 333.797 242.391 333.102 242.77 332.442C243.976 330.09 244.829 327.572 245.3 324.97C245.357 324.655 237.934 324.603 237.238 324.754C235.065 325.224 235.383 327.6 234.542 329.403Z" fill="#897B57"/>
<path d="M177.332 284.224C175.213 287.544 175.702 291.943 177.19 295.589C178.678 299.236 181.047 302.46 182.668 306.049C183.701 308.338 184.426 310.764 185.59 312.989C187.031 315.744 189.135 318.172 190.102 321.127C190.719 323.011 190.86 325.076 191.859 326.788C192.463 327.703 193.151 328.558 193.916 329.343C196.067 331.81 197.682 334.697 198.658 337.822C199.571 335.1 202.304 333.316 205.111 332.727C207.918 332.139 210.827 332.539 213.666 332.94C212.082 330.484 210.483 327.996 209.539 325.229C208.625 322.553 208.356 319.706 207.741 316.946C206.479 311.286 203.784 306.066 201.116 300.918L214.829 299.829C217.067 299.604 219.318 299.521 221.566 299.579C225.106 299.746 228.573 300.615 232.094 301.016C235.615 301.418 239.339 301.313 242.476 299.664C236.477 308.281 233.353 318.576 233.55 329.078C234.891 328.038 236.447 327.311 238.104 326.951C239.762 326.591 241.479 326.606 243.13 326.996C244.781 327.386 246.324 328.141 247.646 329.205C248.968 330.269 250.036 331.615 250.77 333.146C256.144 325.795 255.506 315.56 259.764 307.51C260.639 305.855 261.713 304.313 262.658 302.696C264.443 299.449 265.972 296.067 267.23 292.581C268.421 289.532 269.621 286.138 268.478 283.07C268.004 281.905 267.313 280.842 266.443 279.936C263.986 277.224 260.566 275.219 256.91 275.135C251.298 275.007 246.661 279.171 241.738 281.872C235.86 284.999 229.213 286.379 222.578 285.849C215.815 285.37 209.356 283.154 202.913 281.203C199.69 280.181 196.414 279.335 193.099 278.668C190.337 278.149 187.705 278.724 184.982 279.431C182.018 280.202 179.038 281.551 177.332 284.224Z" fill="#80641D"/>
<path d="M235.886 223.626C235.883 227.336 234.41 230.892 231.79 233.515C229.169 236.138 225.617 237.613 221.911 237.616C221.078 237.617 220.247 237.542 219.428 237.392C216.813 236.919 214.386 235.71 212.433 233.905C210.48 232.101 209.082 229.776 208.402 227.204C207.722 224.632 207.789 221.92 208.595 219.384C209.401 216.849 210.912 214.596 212.951 212.891C214.991 211.185 217.474 210.096 220.109 209.753C222.745 209.41 225.424 209.827 227.831 210.953C230.239 212.08 232.275 213.871 233.702 216.116C235.129 218.36 235.886 220.966 235.886 223.626Z" fill="#FFB9B9"/>
<path d="M213.759 236.917C213.759 236.917 216.321 238.082 217.253 239.015C218.184 239.948 220.979 245.077 225.638 241.813C230.296 238.549 230.762 236.683 232.16 236.683C233.557 236.683 235.42 239.481 235.42 239.481L248.231 277.953C244.778 281.854 240.777 285.232 236.352 287.979C228.899 292.642 220.048 294.974 215.855 293.108C211.663 291.243 203.743 289.844 202.346 286.114C200.948 282.383 198.619 271.191 198.619 271.191L205.141 242.746L213.759 236.917Z" fill="#9BC9FF"/>
<path d="M211.96 275.826C212.976 273.63 213.123 271.144 213.209 268.726C213.346 266.33 213.283 263.928 213.02 261.543C212.607 258.424 211.592 255.419 210.951 252.338C210.389 249.636 210.116 246.882 210.136 244.123C210.146 242.864 210.237 241.538 210.922 240.482C211.401 239.746 212.149 239.175 212.447 238.349C213.033 236.729 211.586 235.034 209.999 234.367C208.067 233.641 205.953 233.556 203.969 234.124C202.001 234.694 200.099 235.472 198.296 236.447C196.933 237.029 195.68 237.84 194.59 238.846C193.144 240.343 192.508 242.43 191.995 244.448C191.584 246.064 191.219 247.749 191.532 249.386C192.039 252.046 194.205 254.046 195.359 256.494C196.7 259.337 196.61 262.65 196.076 265.748C195.543 268.846 194.597 271.876 194.305 275.006C194.013 278.136 194.461 281.501 196.42 283.958C197.218 284.96 199.384 287.333 200.846 287.064C201.994 286.853 203.658 284.323 204.583 283.521C207.255 281.204 210.426 279.143 211.96 275.826Z" fill="#2F2E41"/>
<path d="M236.367 235.396C236.408 237.997 235.262 240.469 233.916 242.693C232.569 244.918 230.987 247.021 229.994 249.425C228.761 252.435 228.509 255.757 229.275 258.918C229.559 259.995 229.902 261.055 230.302 262.094L232.855 269.103C233.198 270.205 233.696 271.252 234.335 272.213C234.912 272.95 235.589 273.602 236.346 274.15C238.285 275.718 240.516 276.883 242.909 277.578C245.319 278.268 247.891 278.121 250.207 277.161C250.453 267.66 251.978 258.236 254.74 249.144C255.25 247.465 255.808 245.698 255.414 243.988C254.974 242.073 253.437 240.635 251.976 239.322C247.509 235.306 242.596 231.088 236.617 230.547C233.156 230.233 236.337 233.515 236.367 235.396Z" fill="#2F2E41"/>
<path d="M205.796 289.612C206.151 290.307 206.371 291.063 206.721 291.759C207.238 292.693 207.878 293.553 208.622 294.318C211.737 297.775 215.544 301.219 220.19 301.428C220.652 301.471 221.117 301.412 221.554 301.256C221.947 301.055 222.284 300.76 222.537 300.398C222.79 300.036 222.951 299.617 223.005 299.179C223.334 297.373 222.538 295.571 221.741 293.918C220.013 290.335 218.068 286.661 214.833 284.35C213.217 283.242 211.371 282.515 209.434 282.223C207.498 281.931 205.52 282.083 203.65 282.666C201.965 283.186 199.17 284.093 201.401 285.633C203.094 286.8 204.815 287.689 205.796 289.612Z" fill="#FFB9B9"/>
<path d="M225.88 243.996C225.395 242.685 224.652 241.485 223.694 240.467C222.728 239.65 221.584 239.07 220.355 238.774C218.761 238.318 217.113 238.082 215.456 238.071C213.483 238.059 211.195 238.588 210.358 240.376C209.692 241.796 210.208 243.478 210.878 244.895C211.164 245.63 211.641 246.275 212.259 246.763C213.11 247.338 214.21 247.32 215.219 247.513C216.782 247.91 218.263 248.582 219.593 249.497L223.048 251.588L228.984 255.179C228.827 255.085 228.883 251.01 228.701 250.343C228.113 248.192 226.791 246.033 225.88 243.996Z" fill="#FFB9B9"/>
<path d="M235.534 216.336C235.286 215.499 234.738 214.783 233.996 214.325C234.034 213.429 233.924 212.533 233.671 211.672C232.825 209.168 230.82 209.311 228.928 208.204C228.107 207.723 228.158 207.299 227.731 206.51C227.171 205.475 226.332 204.619 225.311 204.038C224.097 203.264 222.816 202.467 221.38 202.369C218.363 202.163 216.05 205.004 213.166 205.915C211.895 206.317 210.529 206.334 209.251 206.714C207.973 207.094 206.698 208.001 206.508 209.321C206.42 209.931 206.575 210.557 206.486 211.166C206.309 212.378 205.247 213.226 204.536 214.222C202.964 216.426 203.144 219.539 204.401 221.937C204.666 222.433 204.969 222.907 205.307 223.356C205.412 224.49 205.737 225.591 206.264 226.6C207.521 228.997 209.684 230.789 211.944 232.277C211.759 231.482 211.647 230.672 211.609 229.856C211.577 229.585 211.612 229.309 211.711 229.054C211.963 228.528 212.628 228.388 213.135 228.099C214.185 227.502 214.597 226.18 214.627 224.971C214.657 223.763 214.402 222.552 214.528 221.35C214.533 221.073 214.596 220.801 214.712 220.55C214.829 220.3 214.997 220.076 215.205 219.894C215.592 219.673 216.035 219.567 216.481 219.59C218.632 219.502 220.88 219.462 222.777 218.444C223.389 218.037 224.047 217.704 224.737 217.452C226.35 217.031 227.998 218.162 228.928 219.547C229.857 220.932 230.321 222.58 231.178 224.01C232.036 225.441 233.517 226.717 235.175 226.547C235.268 226.547 235.361 226.528 235.446 226.49C235.531 226.452 235.608 226.396 235.67 226.327C235.742 226.198 235.773 226.051 235.761 225.904L235.854 219.56C235.931 218.475 235.823 217.385 235.534 216.336Z" fill="#2F2E41"/>
<path d="M191.308 249.522C189.974 251.491 188.437 253.384 187.704 255.647C187.273 256.977 187.139 258.383 186.827 259.746C185.789 264.286 182.787 268.318 182.486 272.966C182.38 273.998 182.532 275.041 182.927 276.001C183.788 277.875 185.848 278.863 187.813 279.485C189.779 280.106 191.889 280.554 193.458 281.892C194.248 282.65 194.964 283.481 195.597 284.374C198.156 287.561 201.599 289.919 205.494 291.153C205.186 289.031 205.042 286.473 206.736 285.162C207.653 284.452 208.879 284.325 210.034 284.226L215.492 283.753C211.852 280.219 207.841 277.091 203.527 274.423C202.018 273.489 200.375 272.505 199.686 270.869C199.33 269.814 199.182 268.7 199.251 267.59C199.213 263.526 198.87 259.471 198.223 255.459C197.773 252.674 197.178 249.913 196.498 247.175C196.307 246.406 195.178 242.958 193.788 243.765C193.461 243.955 193.154 246.142 192.963 246.596C192.508 247.623 191.954 248.603 191.308 249.522Z" fill="#2F2E41"/>
<path d="M254.173 242.08L256.402 246.721C257.475 248.629 257.964 250.811 257.807 252.995L257.939 266.915C258.042 268.775 257.888 270.64 257.482 272.458C257.343 273.057 257.081 273.621 256.713 274.113C256.335 274.538 255.89 274.897 255.395 275.176C251.176 277.815 245.706 279.315 241.249 277.104C240.229 276.559 239.258 275.925 238.349 275.208C236.573 273.892 234.77 272.549 233.441 270.781C232.051 268.93 231.254 266.715 230.318 264.597C228.639 260.798 226.469 257.236 223.864 254.001C223.433 253.574 223.152 253.017 223.065 252.415C223.038 251.195 224.484 250.595 225.611 250.13C227.538 249.337 229.354 247.807 229.677 245.747C233.773 251.124 238.293 256.806 244.757 258.771C244.858 258.836 244.975 258.872 245.095 258.875C245.216 258.879 245.335 258.85 245.44 258.792C245.545 258.733 245.632 258.647 245.693 258.543C245.753 258.439 245.784 258.321 245.783 258.2C246.15 256.663 246.279 255.081 246.548 253.524C247.04 250.688 247.988 247.952 249.355 245.42C250.12 244.001 252.599 238.805 254.173 242.08Z" fill="#2F2E41"/>
<path opacity="0.1" d="M198.861 255.499C198.922 258.793 198.223 262.057 196.818 265.037C196.453 265.695 196.183 266.403 196.018 267.138C195.774 268.705 196.665 270.223 197.684 271.439C199.693 273.83 202.3 275.645 205.238 276.7" fill="black"/>
<path opacity="0.1" d="M247.262 252.723C246.934 253.607 247.232 254.585 247.485 255.494C248.219 258.129 248.561 260.858 248.501 263.593C248.512 263.641 248.511 263.691 248.497 263.738C248.484 263.785 248.459 263.828 248.425 263.863C248.391 263.898 248.348 263.924 248.301 263.939C248.255 263.953 248.205 263.956 248.157 263.946C247.082 264.012 245.851 264.019 245.121 263.226" fill="black"/>
<path opacity="0.19" d="M225.471 374.002C258.31 374.002 284.932 368.289 284.932 361.243C284.932 354.196 258.31 348.484 225.471 348.484C192.632 348.484 166.011 354.196 166.011 361.243C166.011 368.289 192.632 374.002 225.471 374.002Z" fill="black"/>
<path opacity="0.19" d="M437.31 386.792C477.387 386.792 509.876 379.823 509.876 371.227C509.876 362.63 477.387 355.661 437.31 355.661C397.233 355.661 364.745 362.63 364.745 371.227C364.745 379.823 397.233 386.792 437.31 386.792Z" fill="black"/>
<path d="M208.591 346.043C207.202 347.933 207.48 350.633 206.25 352.63C205.184 354.36 203.174 355.267 201.84 356.801C201.415 357.31 201.035 357.857 200.707 358.433C199.469 360.508 198.464 363.167 199.682 365.253C200.662 366.931 202.723 367.586 204.613 368.033C207.001 368.598 209.483 369.05 211.899 368.619C214.315 368.187 216.676 366.706 217.538 364.406C217.707 363.827 217.908 363.259 218.141 362.702C219.45 360.122 223.558 360.094 224.898 357.529C225.836 355.734 224.974 353.564 224.112 351.732L221.48 346.134C220.606 344.276 217.065 345.344 215.219 344.899C212.812 344.319 210.323 343.679 208.591 346.043Z" fill="#2F2E41"/>
<path d="M228.95 341.235C227.872 342.084 227.048 343.214 226.568 344.501C225.266 347.509 224.818 350.807 224.384 354.057C224.136 355.35 224.111 356.675 224.309 357.977C224.87 360.631 227.273 362.585 229.859 363.397C232.445 364.208 235.219 364.083 237.925 363.95C238.799 363.973 239.666 363.797 240.461 363.435C241.822 362.684 242.353 360.919 242.12 359.381C241.887 357.844 241.047 356.476 240.226 355.156C239.405 353.836 238.565 352.469 238.33 350.932C237.934 348.346 239.051 344.55 237.464 342.211C235.873 339.867 231.072 339.746 228.95 341.235Z" fill="#2F2E41"/>
<path d="M466.267 230.031L461.083 235.219L466.267 240.408L471.45 230.031H466.267Z" fill="#A0616A"/>
<path d="M467.434 185.039C468.889 185.635 469.58 187.264 470.129 188.738L476.852 206.825L478.161 210.345C478.803 212.071 479.445 213.799 479.988 215.559C480.331 216.673 480.634 217.797 480.897 218.933C481.17 219.906 481.275 220.917 481.207 221.925C481.025 223.034 480.621 224.094 480.019 225.042C477.679 229.12 474.348 232.54 470.334 234.985C470.103 233.489 469.501 232.076 468.582 230.874C467.664 229.671 466.459 228.719 465.078 228.103L468.555 226.189C469.291 225.844 469.952 225.359 470.504 224.761C470.84 224.295 471.08 223.765 471.207 223.204C471.335 222.643 471.349 222.062 471.248 221.496C471.039 220.366 470.692 219.266 470.215 218.22C469.049 215.306 468.037 212.332 467.183 209.311C466.678 207.524 466.214 205.687 465.213 204.123C464.305 202.705 462.991 201.57 462.166 200.102C460.909 197.864 460.941 195.108 461.496 192.602C461.965 190.485 462.751 188.448 463.412 186.388C463.931 184.769 465.877 184.401 467.434 185.039Z" fill="#651336"/>
<path d="M435.377 136.718C432.703 137.621 430.281 139.735 429.734 142.507C429.48 143.791 429.635 145.127 429.422 146.418C428.927 149.414 426.577 151.703 424.41 153.828C422.243 155.953 420.006 158.423 419.847 161.456C419.674 164.777 422.08 167.888 421.664 171.187C421.18 175.02 417.136 177.504 416.136 181.235C415.469 183.727 416.287 186.411 417.633 188.611C420.197 192.804 424.581 195.65 429.25 197.176C433.918 198.702 438.89 199.023 443.801 199.074C449.78 199.137 456.272 198.623 460.765 194.673C463.331 192.396 464.943 189.232 465.277 185.816C465.703 181.24 463.796 176.512 465.112 172.109C465.94 169.338 468.017 166.807 467.707 163.931C467.404 161.12 464.951 159.127 463.268 156.855C461.696 154.734 460.743 152.23 459.808 149.76L456.611 141.312C455.982 139.651 455.292 137.904 453.891 136.814C451.269 134.773 447.052 135.174 443.986 135.595C441.141 135.986 438.112 135.793 435.377 136.718Z" fill="#2F2E41"/>
<path d="M437.85 164.561C437.85 164.561 438.163 173.959 437.224 174.899C436.286 175.839 440.98 182.105 440.98 182.105L449.43 181.791L453.811 178.345L450.056 173.333C450.056 173.333 448.491 165.187 449.743 163.307C450.995 161.428 437.85 164.561 437.85 164.561Z" fill="#A0616A"/>
<path opacity="0.1" d="M437.85 164.561C437.85 164.561 438.163 173.959 437.224 174.899C436.286 175.839 440.98 182.105 440.98 182.105L449.43 181.791L453.811 178.345L450.056 173.333C450.056 173.333 448.491 165.187 449.743 163.307C450.995 161.428 437.85 164.561 437.85 164.561Z" fill="black"/>
<path d="M418.29 237.086L423.61 248.992L427.679 243.979L419.542 233.327L418.29 237.086Z" fill="#A0616A"/>
<path d="M404.051 356.292L401.86 368.511L398.104 373.837L400.295 375.089L404.051 374.463L408.432 372.896L410.31 365.691L413.753 356.292H404.051Z" fill="#A0616A"/>
<path d="M444.11 348.773L442.858 366.318L445.987 368.824L450.995 364.438V351.593L444.11 348.773Z" fill="#A0616A"/>
<path d="M443.014 168.163C449.236 168.163 454.281 163.114 454.281 156.885C454.281 150.656 449.236 145.607 443.014 145.607C436.792 145.607 431.748 150.656 431.748 156.885C431.748 163.114 436.792 168.163 443.014 168.163Z" fill="#A0616A"/>
<path d="M451.708 172.054C451.37 171.892 451.002 171.804 450.627 171.797C450.253 171.789 449.881 171.863 449.537 172.013C448.854 172.316 448.19 172.662 447.551 173.049C445.906 173.906 444.042 174.245 442.202 174.023C441.986 174.007 441.774 173.952 441.577 173.862C441.368 173.732 441.175 173.576 441.004 173.399C440.337 172.856 439.485 172.594 438.629 172.668C437.772 172.742 436.978 173.146 436.413 173.795C436.082 174.208 435.856 174.701 435.495 175.087C434.559 176.088 433.016 176.129 431.647 176.126C428.808 176.047 425.97 176.308 423.193 176.902C420.403 177.505 417.834 178.867 415.769 180.84C415.206 181.37 414.757 182.011 414.45 182.722C414.073 183.697 414.122 184.792 413.783 185.781C413.405 186.882 412.568 187.785 412.229 188.899C411.974 189.738 412.009 190.672 411.582 191.438C413.411 193.022 414.96 195.135 416.789 196.72C418 197.769 419.268 198.904 419.723 200.442C419.928 201.389 420.019 202.358 419.994 203.327C420.221 207.962 422.731 212.165 425.539 215.857C426.308 216.952 427.23 217.932 428.275 218.767C429.694 219.734 431.305 220.382 432.999 220.666C436.196 221.32 439.487 221.317 442.75 221.284C446.123 221.251 449.554 221.179 452.76 220.13C454.392 219.674 455.86 218.762 456.991 217.5C458.31 215.879 458.824 213.534 460.623 212.472C461.059 212.272 461.471 212.025 461.854 211.736C462.22 211.338 462.479 210.854 462.607 210.328C463.237 208.36 463.583 206.313 463.637 204.248C463.591 203.008 463.675 201.767 463.888 200.545C464.199 199.469 464.652 198.438 465.236 197.482L468.964 190.714C469.267 190.164 469.188 189.354 469.215 188.727C469.188 187.822 468.91 186.942 468.414 186.186C465.996 181.908 462.197 178.579 457.641 176.746C457.282 176.624 456.94 176.456 456.624 176.247C456.251 175.933 455.936 175.557 455.692 175.135C454.703 173.642 453.495 171.961 451.708 172.054Z" fill="#651336"/>
<path d="M405.246 208.915C404.511 210.704 403.971 212.568 403.636 214.473C403.276 217.105 403.7 219.785 404.855 222.178C406.864 226.317 410.819 229.125 413.611 232.782C416.204 236.18 417.749 240.252 419.995 243.889C419.603 242.963 420.079 241.892 420.72 241.117C421.361 240.343 422.18 239.701 422.65 238.812C422.97 238.124 423.171 237.387 423.245 236.631C423.58 234.376 423.761 231.925 422.613 229.956C421.748 228.474 420.254 227.489 419.072 226.246C417.889 224.982 417.02 223.457 416.534 221.794C416.049 220.131 415.96 218.378 416.275 216.674C416.503 215.502 416.921 214.376 417.235 213.224C417.623 211.675 417.917 210.104 418.115 208.519L419.524 198.829C419.899 196.252 420.216 193.4 418.758 191.243C418.473 190.791 418.08 190.419 417.614 190.16C417.228 189.983 416.818 189.867 416.397 189.816C414.863 189.565 412.785 188.893 412.036 190.538C411.133 192.524 410.503 194.689 409.746 196.736L405.246 208.915Z" fill="#651336"/>
<path d="M458.959 214.217C458.959 214.217 440.354 217.819 435.973 217.819H428.149C428.149 217.819 425.332 222.832 425.332 227.845C425.332 232.857 406.867 303.034 406.867 303.034C406.867 303.034 389.341 360.678 408.745 360.992C428.149 361.305 440.354 362.245 440.667 355.666C440.98 349.087 442.858 264.186 442.858 264.186L445.779 307.842C446.564 318.649 445.726 329.513 443.292 340.072C441.891 345.991 442.108 352.481 449.117 353.786C462.574 356.292 479.474 354.099 479.474 349.4C479.474 344.701 470.711 240.376 470.711 240.376C470.711 240.376 466.33 225.025 463.826 223.772C461.323 222.519 458.959 214.217 458.959 214.217Z" fill="#110F49"/>
<path d="M400.608 373.21L407.493 370.704L412.188 358.799L417.195 358.172C417.195 358.172 414.378 364.125 412.813 365.064C411.249 366.004 408.745 373.837 408.745 373.837C408.745 373.837 409.997 376.969 404.051 378.223C398.104 379.476 393.723 380.416 393.723 380.416C393.723 380.416 393.097 379.162 395.914 376.03C398.73 372.897 402.019 367.622 402.019 367.622L400.608 373.21Z" fill="#2F2E41"/>
<path d="M442.858 358.799L441.606 368.197C441.606 368.197 445.049 373.21 445.987 373.21C446.926 373.21 451.934 368.824 451.934 368.824C451.934 368.824 451.621 364.125 451.934 362.871C452.247 361.618 452.873 355.666 451.934 355.352C450.995 355.039 450.995 362.335 450.995 362.335L446.926 366.631L443.003 364.276L442.858 358.799Z" fill="#2F2E41"/>
<path d="M443.953 156.885C450.694 156.885 456.158 153.939 456.158 150.306C456.158 146.672 450.694 143.727 443.953 143.727C437.212 143.727 431.748 146.672 431.748 150.306C431.748 153.939 437.212 156.885 443.953 156.885Z" fill="#2F2E41"/>
<path d="M0 279.414C0 316.321 23.129 346.185 51.712 346.185L0 279.414Z" fill="#31A527"/>
<path d="M51.7122 346.185C51.7122 308.864 77.5228 278.664 109.42 278.664L51.7122 346.185Z" fill="#21512E"/>
<path d="M18.7362 282.76C18.7362 317.817 33.4852 346.185 51.712 346.185L18.7362 282.76Z" fill="#78E296"/>
<path d="M51.7122 346.185C51.7122 298.497 81.5452 259.908 118.413 259.908L51.7122 346.185Z" fill="#31A527"/>
<path d="M40.8333 346.656C40.8333 346.656 48.1669 346.429 50.377 344.854C52.5872 343.279 61.658 341.397 62.2063 343.924C62.7546 346.451 73.2274 356.491 64.9477 356.558C56.6681 356.624 45.7096 355.267 43.5037 353.921C41.2977 352.576 40.8333 346.656 40.8333 346.656Z" fill="#A8A8A8"/>
<path opacity="0.2" d="M65.0955 355.678C56.8159 355.745 45.8573 354.387 43.6514 353.042C41.9715 352.018 41.3021 348.342 41.0781 346.646C40.923 346.653 40.8333 346.656 40.8333 346.656C40.8333 346.656 41.2977 352.576 43.5037 353.921C45.7096 355.267 56.6681 356.624 64.9478 356.558C67.3377 356.538 68.1633 355.687 68.118 354.426C67.7859 355.188 66.8744 355.664 65.0955 355.678Z" fill="black"/>
</g>
<defs>
<linearGradient id="paint0_linear" x1="224.673" y1="3.35717e-06" x2="354.173" y2="352.543" gradientUnits="userSpaceOnUse">
<stop stop-color="#FFF494"/>
<stop offset="1" stop-color="#FE9800"/>
</linearGradient>
<clipPath id="clip0">
<path d="M0 0H597V437H0V0Z" fill="white"/>
</clipPath>
</defs>
</svg>
