<svg width="73" height="71" viewBox="0 0 73 71" fill="none" xmlns="http://www.w3.org/2000/svg">
<path d="M39.809 27.6101L39.0071 27.0296C35.1699 24.2518 29.8074 25.1107 27.0296 28.9479C24.2518 32.7851 25.1106 38.1477 28.9479 40.9255L29.7498 41.506C33.587 44.2838 38.9496 43.4249 41.7273 39.5877C44.5051 35.7505 43.6463 30.3879 39.809 27.6101Z" fill="#110F49"/>
<path d="M33.857 13.3226C31.752 16.2305 32.4029 20.2943 35.3108 22.3993L46.2856 30.344C47.2605 31.0498 48.4123 31.471 49.6125 31.5607V31.5607C56.1473 32.0493 59.2168 23.6562 53.9086 19.8136L42.9338 11.8689C40.0259 9.76386 35.9621 10.4147 33.857 13.3226V13.3226Z" fill="#110F49"/>
<path d="M13.8115 39.8866C11.7064 42.7945 12.3573 46.8583 15.2652 48.9633L26.24 56.908C27.215 57.6138 28.3667 58.035 29.5669 58.1247C36.1017 58.6133 39.1712 50.2202 33.863 46.3776L22.8882 38.4329C19.9803 36.3278 15.9165 36.9787 13.8115 39.8866Z" fill="#110F49"/>
<path d="M18.3863 32.5722C19.7284 33.5437 21.6039 33.2433 22.5755 31.9012L29.2055 22.7426C31.0114 20.2479 28.3357 16.9772 25.5327 18.2529L13.694 23.641C11.5999 24.5941 11.3139 27.4525 13.1776 28.8016L18.3863 32.5722Z" fill="#110F49"/>
<path d="M51.0711 34.7081C49.709 33.7647 47.8401 34.1041 46.8967 35.4662L40.4589 44.7609C38.7053 47.2926 41.4486 50.5069 44.2244 49.1731L55.9483 43.5397C58.0221 42.5432 58.2485 39.6795 56.3571 38.3694L51.0711 34.7081Z" fill="#110F49"/>
</svg>
