<svg width="373" height="293" viewBox="0 0 373 293" fill="none" xmlns="http://www.w3.org/2000/svg">
<path d="M371.906 201.736C369.569 221.779 364.713 237.871 358.047 250.704C349.177 267.804 334.004 274.694 320.451 281.903C316.534 283.982 312.463 285.755 308.272 287.203C283.609 295.771 256.005 293.498 234.322 288.975C219.114 285.799 203.677 283.846 188.157 283.133C183.731 282.933 179.301 282.834 174.866 282.835C168.027 282.844 44.8872 285.184 14.9062 224.429C7.50408 209.442 2.43038 191.135 0.607571 168.819C-4.55041 105.729 23.7985 64.2938 60.3656 37.2103C129.539 -14.0224 224.356 -11.8738 292.51 40.7084C337.907 75.7337 380.413 128.742 371.906 201.736Z" fill="#9BC9FF"/>
<path d="M283.1 144.966C263.91 130.606 233.853 117.026 200.638 107.708C170.395 99.2231 140.897 95.1267 117.572 96.1728L117.45 93.4577C141.054 92.3996 170.857 96.5304 201.371 105.091C234.896 114.496 265.278 128.237 284.726 142.789L283.1 144.966Z" fill="#F2F2F2"/>
<path d="M281.107 156.026C281.125 168.749 278.46 181.331 273.288 192.953C272.856 193.926 272.406 194.89 271.938 195.844C264.483 211.129 252.889 224.01 238.476 233.019C224.063 242.028 207.411 246.803 190.418 246.8C140.333 246.8 99.7292 206.158 99.7292 156.026C99.7292 153.926 99.8007 151.841 99.9437 149.773C100.012 148.721 100.099 147.676 100.207 146.637C104.902 100.915 143.502 65.2528 190.418 65.2528C240.504 65.2528 281.107 105.894 281.107 156.026Z" fill="#110F49"/>
<path opacity="0.1" d="M273.288 192.953C272.856 193.926 272.406 194.89 271.938 195.845C269.288 196.133 266.498 196.342 263.57 196.472C261.145 196.581 258.65 196.635 256.1 196.635C233.83 196.635 207.027 192.521 179.647 184.84C149.133 176.279 121.527 164.305 101.912 151.121C101.244 150.672 100.588 150.223 99.9436 149.773C100.012 148.721 100.099 147.676 100.207 146.637C101.247 147.379 102.32 148.121 103.425 148.865C122.809 161.891 150.138 173.738 180.38 182.223C207.522 189.838 234.071 193.918 256.086 193.918C258.604 193.918 261.057 193.864 263.447 193.757C266.928 193.6 270.208 193.332 273.288 192.953Z" fill="black"/>
<path d="M256.1 194.462C233.831 194.462 207.027 190.347 179.648 182.666C149.134 174.105 121.527 162.13 101.912 148.947C81.8873 135.488 72.4975 122.227 75.4718 111.605C78.4459 100.983 93.3542 94.5385 117.45 93.4576L117.572 96.1728C106.319 96.6774 97.1488 98.3515 90.3154 101.148C83.4987 103.938 79.3842 107.703 78.0862 112.339C76.7883 116.974 78.3485 122.331 82.7234 128.261C87.109 134.205 94.0742 140.405 103.426 146.691C122.807 159.717 150.137 171.564 180.381 180.049C207.523 187.663 234.07 191.744 256.087 191.744C258.603 191.744 261.056 191.691 263.447 191.584C274.699 191.079 283.87 189.405 290.703 186.608C297.52 183.818 301.634 180.053 302.932 175.418C305.263 167.095 298.22 156.28 283.1 144.966L284.726 142.789C292.506 148.612 298.266 154.351 301.844 159.847C305.681 165.739 306.926 171.225 305.547 176.152C302.572 186.773 287.664 193.218 263.568 194.299C261.144 194.408 258.65 194.462 256.1 194.462Z" fill="#F2F2F2"/>
<path d="M192.817 48.8818C193.391 48.8818 193.857 48.416 193.857 47.8416C193.857 47.2671 193.391 46.8014 192.817 46.8014C192.243 46.8014 191.778 47.2671 191.778 47.8416C191.778 48.416 192.243 48.8818 192.817 48.8818Z" fill="#110F49"/>
<path d="M54.949 93.2692C55.523 93.2692 55.9882 92.8035 55.9882 92.229C55.9882 91.6545 55.523 91.1888 54.949 91.1888C54.3751 91.1888 53.9098 91.6545 53.9098 92.229C53.9098 92.8035 54.3751 93.2692 54.949 93.2692Z" fill="#110F49"/>
<path d="M51.1386 163.308C51.7125 163.308 52.1778 162.842 52.1778 162.267C52.1778 161.693 51.7125 161.227 51.1386 161.227C50.5647 161.227 50.0994 161.693 50.0994 162.267C50.0994 162.842 50.5647 163.308 51.1386 163.308Z" fill="#110F49"/>
<path d="M263.137 54.7761C263.52 54.7761 263.83 54.4656 263.83 54.0826C263.83 53.6996 263.52 53.3892 263.137 53.3892C262.755 53.3892 262.444 53.6996 262.444 54.0826C262.444 54.4656 262.755 54.7761 263.137 54.7761Z" fill="#110F49"/>
<path d="M346.62 152.559C347.003 152.559 347.313 152.249 347.313 151.866C347.313 151.483 347.003 151.172 346.62 151.172C346.238 151.172 345.927 151.483 345.927 151.866C345.927 152.249 346.238 152.559 346.62 152.559Z" fill="#110F49"/>
<path d="M308.516 120.66C308.899 120.66 309.209 120.35 309.209 119.967C309.209 119.584 308.899 119.274 308.516 119.274C308.133 119.274 307.823 119.584 307.823 119.967C307.823 120.35 308.133 120.66 308.516 120.66Z" fill="#110F49"/>
<path d="M117.648 70.3787C118.031 70.3787 118.341 70.0683 118.341 69.6853C118.341 69.3023 118.031 68.9918 117.648 68.9918C117.265 68.9918 116.955 69.3023 116.955 69.6853C116.955 70.0683 117.265 70.3787 117.648 70.3787Z" fill="#110F49"/>
<path d="M306.091 143.198C306.474 143.198 306.784 142.887 306.784 142.504C306.784 142.121 306.474 141.811 306.091 141.811C305.709 141.811 305.398 142.121 305.398 142.504C305.398 142.887 305.709 143.198 306.091 143.198Z" fill="#110F49"/>
<path d="M59.4523 212.889C59.8349 212.889 60.1451 212.579 60.1451 212.196C60.1451 211.813 59.8349 211.503 59.4523 211.503C59.0696 211.503 58.7595 211.813 58.7595 212.196C58.7595 212.579 59.0696 212.889 59.4523 212.889Z" fill="#110F49"/>
<path d="M100.674 241.321C101.057 241.321 101.367 241.01 101.367 240.627C101.367 240.244 101.057 239.934 100.674 239.934C100.292 239.934 99.9814 240.244 99.9814 240.627C99.9814 241.01 100.292 241.321 100.674 241.321Z" fill="#110F49"/>
<path d="M160.602 18.8066H159.646V17.8499H159.133V18.8066H158.177V19.3203H159.133V20.277H159.646V19.3203H160.602V18.8066Z" fill="#3360FF"/>
<path d="M263.83 254.58H262.874V253.623H262.361V254.58H261.405V255.093H262.361V256.05H262.874V255.093H263.83V254.58Z" fill="#3360FF"/>
<path d="M327.915 240.364H326.959V239.407H326.446V240.364H325.49V240.878H326.446V241.835H326.959V240.878H327.915V240.364Z" fill="#3360FF"/>
<path d="M215.079 226.259C219.288 226.259 222.699 222.844 222.699 218.631C222.699 214.419 219.288 211.004 215.079 211.004C210.87 211.004 207.458 214.419 207.458 218.631C207.458 222.844 210.87 226.259 215.079 226.259Z" fill="#C9C9CC"/>
<path d="M215.079 196.441C220.627 196.441 225.124 191.939 225.124 186.386C225.124 180.833 220.627 176.331 215.079 176.331C209.531 176.331 205.033 180.833 205.033 186.386C205.033 191.939 209.531 196.441 215.079 196.441Z" fill="white"/>
<path d="M215.079 171.824C211.312 171.824 207.699 173.321 205.036 175.987C202.372 178.653 200.876 182.269 200.876 186.039C200.876 190.736 205.958 201.847 210.042 210.019C212.155 214.247 218.003 214.247 220.115 210.019C224.199 201.847 229.281 190.736 229.281 186.039C229.281 182.269 227.785 178.653 225.121 175.987C222.458 173.321 218.845 171.824 215.079 171.824ZM215.079 192.974C213.777 192.974 212.504 192.588 211.422 191.864C210.34 191.14 209.496 190.111 208.998 188.907C208.5 187.703 208.369 186.379 208.623 185.101C208.877 183.823 209.504 182.649 210.425 181.728C211.345 180.806 212.518 180.179 213.795 179.925C215.071 179.671 216.395 179.801 217.597 180.3C218.8 180.798 219.828 181.643 220.551 182.726C221.274 183.809 221.66 185.083 221.66 186.386C221.66 187.251 221.49 188.108 221.159 188.907C220.829 189.706 220.344 190.433 219.733 191.044C219.121 191.656 218.396 192.141 217.597 192.472C216.799 192.803 215.943 192.974 215.079 192.974Z" fill="#3360FF"/>
<path d="M129.017 118.006C133.226 118.006 136.637 114.591 136.637 110.378C136.637 106.165 133.226 102.75 129.017 102.75C124.808 102.75 121.396 106.165 121.396 110.378C121.396 114.591 124.808 118.006 129.017 118.006Z" fill="#C9C9CC"/>
<path d="M129.017 88.1876C134.565 88.1876 139.062 83.6858 139.062 78.1325C139.062 72.5793 134.565 68.0775 129.017 68.0775C123.469 68.0775 118.971 72.5793 118.971 78.1325C118.971 83.6858 123.469 88.1876 129.017 88.1876Z" fill="white"/>
<path d="M129.017 63.5701C125.25 63.5701 121.637 65.0678 118.974 67.7338C116.31 70.3997 114.814 74.0156 114.814 77.7858C114.814 82.4821 119.896 93.5937 123.98 101.766C126.093 105.993 131.941 105.993 134.054 101.766C138.138 93.5937 143.219 82.4821 143.219 77.7858C143.219 74.0156 141.723 70.3997 139.059 67.7338C136.396 65.0678 132.783 63.5701 129.017 63.5701ZM129.017 84.7203C127.715 84.7203 126.442 84.334 125.36 83.6101C124.278 82.8862 123.434 81.8573 122.936 80.6536C122.438 79.4498 122.307 78.1252 122.561 76.8473C122.815 75.5694 123.442 74.3956 124.363 73.4742C125.283 72.5529 126.456 71.9255 127.733 71.6713C129.009 71.4171 130.333 71.5476 131.535 72.0462C132.738 72.5448 133.766 73.3892 134.489 74.4725C135.212 75.5559 135.598 76.8296 135.598 78.1325C135.598 78.9976 135.428 79.8543 135.097 80.6536C134.767 81.4528 134.282 82.1791 133.671 82.7908C133.059 83.4025 132.334 83.8878 131.535 84.2189C130.737 84.5499 129.881 84.7203 129.017 84.7203Z" fill="#3360FF"/>
<path d="M225.204 106.029C229.412 106.029 232.824 102.614 232.824 98.401C232.824 94.1882 229.412 90.7731 225.204 90.7731C220.995 90.7731 217.583 94.1882 217.583 98.401C217.583 102.614 220.995 106.029 225.204 106.029Z" fill="#C9C9CC"/>
<path d="M225.204 76.2105C230.752 76.2105 235.249 71.7087 235.249 66.1555C235.249 60.6023 230.752 56.1005 225.204 56.1005C219.655 56.1005 215.158 60.6023 215.158 66.1555C215.158 71.7087 219.655 76.2105 225.204 76.2105Z" fill="white"/>
<path d="M225.204 51.5931C221.437 51.5931 217.824 53.0909 215.161 55.7568C212.497 58.4228 211.001 62.0386 211.001 65.8089C211.001 70.5052 216.083 81.6168 220.167 89.7886C222.28 94.0165 228.127 94.0165 230.24 89.7886C234.324 81.6168 239.406 70.5052 239.406 65.8089C239.406 62.0386 237.91 58.4228 235.246 55.7568C232.583 53.0909 228.97 51.5931 225.204 51.5931ZM225.204 72.7434C223.902 72.7434 222.629 72.357 221.547 71.6332C220.465 70.9093 219.621 69.8804 219.123 68.6766C218.625 67.4729 218.494 66.1483 218.748 64.8704C219.002 63.5925 219.629 62.4186 220.55 61.4973C221.47 60.576 222.643 59.9486 223.92 59.6944C225.196 59.4402 226.52 59.5706 227.722 60.0693C228.925 60.5679 229.953 61.4123 230.676 62.4956C231.399 63.579 231.785 64.8527 231.785 66.1556C231.785 67.0207 231.615 67.8774 231.284 68.6766C230.953 69.4759 230.469 70.2021 229.858 70.8139C229.246 71.4256 228.521 71.9109 227.722 72.2419C226.924 72.573 226.068 72.7434 225.204 72.7434Z" fill="#3360FF"/>
<path d="M273.067 160.386C277.276 160.386 280.688 156.971 280.688 152.758C280.688 148.545 277.276 145.13 273.067 145.13C268.858 145.13 265.446 148.545 265.446 152.758C265.446 156.971 268.858 160.386 273.067 160.386Z" fill="#C9C9CC"/>
<path d="M273.067 130.568C278.615 130.568 283.113 126.066 283.113 120.513C283.113 114.959 278.615 110.458 273.067 110.458C267.519 110.458 263.021 114.959 263.021 120.513C263.021 126.066 267.519 130.568 273.067 130.568Z" fill="white"/>
<path d="M273.067 105.95C269.3 105.95 265.688 107.448 263.024 110.114C260.361 112.78 258.864 116.396 258.864 120.166C258.864 124.862 263.946 135.974 268.03 144.146C270.143 148.374 275.991 148.374 278.104 144.146C282.188 135.974 287.269 124.862 287.269 120.166C287.269 116.396 285.773 112.78 283.11 110.114C280.446 107.448 276.834 105.95 273.067 105.95ZM273.067 127.1C271.765 127.1 270.493 126.714 269.41 125.99C268.328 125.266 267.484 124.237 266.986 123.034C266.488 121.83 266.358 120.505 266.612 119.227C266.866 117.95 267.493 116.776 268.413 115.854C269.333 114.933 270.506 114.306 271.783 114.051C273.06 113.797 274.383 113.928 275.586 114.426C276.788 114.925 277.816 115.769 278.539 116.853C279.263 117.936 279.649 119.21 279.649 120.513C279.649 121.378 279.478 122.234 279.148 123.034C278.817 123.833 278.332 124.559 277.721 125.171C277.11 125.783 276.384 126.268 275.586 126.599C274.787 126.93 273.931 127.1 273.067 127.1Z" fill="#3360FF"/>
<path d="M135.92 214.743C140.129 214.743 143.541 211.328 143.541 207.115C143.541 202.902 140.129 199.487 135.92 199.487C131.711 199.487 128.299 202.902 128.299 207.115C128.299 211.328 131.711 214.743 135.92 214.743Z" fill="#C9C9CC"/>
<path d="M135.92 184.925C141.468 184.925 145.966 180.423 145.966 174.87C145.966 169.316 141.468 164.815 135.92 164.815C130.372 164.815 125.874 169.316 125.874 174.87C125.874 180.423 130.372 184.925 135.92 184.925Z" fill="white"/>
<path d="M135.92 160.307C132.153 160.307 128.541 161.805 125.877 164.471C123.214 167.137 121.717 170.753 121.717 174.523C121.717 179.219 126.799 190.331 130.883 198.503C132.996 202.731 138.844 202.731 140.957 198.503C145.041 190.331 150.123 179.219 150.123 174.523C150.123 170.753 148.626 167.137 145.963 164.471C143.299 161.805 139.687 160.307 135.92 160.307ZM135.92 181.458C134.618 181.458 133.346 181.071 132.263 180.347C131.181 179.623 130.337 178.595 129.839 177.391C129.341 176.187 129.211 174.862 129.465 173.584C129.719 172.307 130.346 171.133 131.266 170.211C132.187 169.29 133.359 168.663 134.636 168.409C135.913 168.154 137.236 168.285 138.439 168.783C139.641 169.282 140.669 170.126 141.392 171.21C142.116 172.293 142.502 173.567 142.502 174.87C142.502 175.735 142.331 176.591 142.001 177.391C141.67 178.19 141.185 178.916 140.574 179.528C139.963 180.14 139.237 180.625 138.439 180.956C137.64 181.287 136.784 181.458 135.92 181.458Z" fill="#3360FF"/>
<path d="M186.545 169.138C190.754 169.138 194.166 165.723 194.166 161.511C194.166 157.298 190.754 153.883 186.545 153.883C182.336 153.883 178.924 157.298 178.924 161.511C178.924 165.723 182.336 169.138 186.545 169.138Z" fill="#C9C9CC"/>
<path d="M186.545 139.32C192.093 139.32 196.59 134.818 196.59 129.265C196.59 123.712 192.093 119.21 186.545 119.21C180.997 119.21 176.499 123.712 176.499 129.265C176.499 134.818 180.997 139.32 186.545 139.32Z" fill="white"/>
<path d="M186.545 114.703C182.778 114.703 179.165 116.2 176.502 118.866C173.839 121.532 172.342 125.148 172.342 128.918C172.342 133.615 177.424 144.726 181.508 152.898C183.621 157.126 189.469 157.126 191.582 152.898C195.666 144.726 200.747 133.615 200.747 128.918C200.747 125.148 199.251 121.532 196.587 118.866C193.924 116.2 190.311 114.703 186.545 114.703ZM186.545 135.853C185.243 135.853 183.97 135.467 182.888 134.743C181.806 134.019 180.962 132.99 180.464 131.786C179.966 130.582 179.836 129.258 180.09 127.98C180.343 126.702 180.97 125.528 181.891 124.607C182.811 123.685 183.984 123.058 185.261 122.804C186.537 122.55 187.861 122.68 189.063 123.179C190.266 123.677 191.294 124.522 192.017 125.605C192.74 126.688 193.126 127.962 193.126 129.265C193.126 130.13 192.956 130.987 192.625 131.786C192.295 132.585 191.81 133.312 191.199 133.923C190.587 134.535 189.862 135.02 189.063 135.351C188.265 135.682 187.409 135.853 186.545 135.853Z" fill="#3360FF"/>
</svg>
