<?xml version="1.0" encoding="UTF-8" standalone="no"?>
<!DOCTYPE svg PUBLIC "-//W3C//DTD SVG 1.1//EN" "http://www.w3.org/Graphics/SVG/1.1/DTD/svg11.dtd">
<svg width="100%" height="100%" viewBox="0 0 370 282" version="1.1" xmlns="http://www.w3.org/2000/svg" xmlns:xlink="http://www.w3.org/1999/xlink" xml:space="preserve" xmlns:serif="http://www.serif.com/" style="fill-rule:evenodd;clip-rule:evenodd;stroke-miterlimit:10;">
    <g transform="matrix(1,0,0,1,-22.35,-30.32)">
        <path d="M186.19,30.59C184.47,30.53 182.76,30.49 181.06,30.45C153.77,29.88 125.92,30.8 100.15,39.79C74.38,48.78 50.63,67 40.72,92.4C35.59,105.59 34.38,119.91 32.47,133.93C28.9,160.22 22.69,186.28 22.36,212.8C22.03,239.32 28.36,267.24 46.57,286.56C78.16,320.12 121.98,300.23 159.57,291.19C181.878,285.845 205.086,285.432 227.57,289.98C242.41,292.98 256.74,298.15 271.57,301.33C282.24,303.62 293.34,304.88 304.21,303.47C314.65,302.12 322.7,297.14 332.21,293.13C350.31,285.45 368.61,275.67 380.15,259.18C388.992,246.238 393.053,230.61 391.63,215C388.08,173.84 349.63,156.56 329.78,124.21C318.22,105.41 310.34,84.09 295.47,67.79C268.79,38.59 226.05,31.86 186.19,30.59Z" style="fill:white;fill-rule:nonzero;"/>
    </g>
    <g transform="matrix(1,0,0,1,-22.35,-30.32)">
        <path d="M245.12,72.07L245.12,276.22C245.12,286.001 237.071,294.05 227.29,294.05L138.93,294.05C129.149,294.05 121.1,286.001 121.1,276.22L121.1,72.07C121.1,72.067 121.1,72.063 121.1,72.06C121.1,62.279 129.149,54.23 138.93,54.23L227.29,54.23C237.071,54.23 245.12,62.279 245.12,72.06C245.12,72.063 245.12,72.067 245.12,72.07Z" style="fill:rgb(17,15,73);fill-rule:nonzero;"/>
    </g>
    <path d="M220.32,44.18C220.32,34.665 212.595,26.94 203.08,26.94L118.43,26.94C108.915,26.94 101.19,34.665 101.19,44.18L101.19,243.09C101.19,252.605 108.915,260.33 118.43,260.33L203.08,260.33C212.595,260.33 220.32,252.605 220.32,243.09L220.32,44.18Z" style="fill:rgb(71,63,71);"/>
    <g transform="matrix(1,0,0,1,-22.35,-30.32)">
        <path d="M239.43,76.45L239.43,269.06C239.337,278.092 231.832,285.448 222.8,285.36L143.49,285.36C140.593,285.369 137.743,284.625 135.22,283.2C130.075,280.359 126.862,274.937 126.84,269.06L126.84,76.45C126.938,67.413 134.453,60.056 143.49,60.15L156.89,60.15L156.89,62.52C156.959,65.693 158.937,68.528 161.89,69.69C162.861,70.073 163.896,70.27 164.94,70.27L201.78,70.27C206.143,70.298 209.765,66.752 209.83,62.39L209.83,60.15L222.83,60.15C227.094,60.141 231.205,61.758 234.32,64.67C237.582,67.717 239.434,71.987 239.43,76.45Z" style="fill:white;fill-rule:nonzero;"/>
    </g>
    <path d="M167.46,162.29C167.46,161.49 166.81,160.84 166.01,160.84L119.92,160.84C119.12,160.84 118.47,161.49 118.47,162.29L118.47,162.3C118.47,163.1 119.12,163.75 119.92,163.75L166.01,163.75C166.81,163.75 167.46,163.1 167.46,162.3L167.46,162.29Z" style="fill:rgb(17,15,73);fill-opacity:0.31;"/>
    <path d="M167.46,169.4C167.46,168.6 166.81,167.95 166.01,167.95L119.92,167.95C119.12,167.95 118.47,168.6 118.47,169.4L118.47,169.41C118.47,170.21 119.12,170.86 119.92,170.86L166.01,170.86C166.81,170.86 167.46,170.21 167.46,169.41L167.46,169.4Z" style="fill:rgb(17,15,73);fill-opacity:0.31;"/>
    <rect x="98.74" y="134.65" width="124.03" height="7.79" style="fill:rgb(17,15,73);fill-opacity:0.18;"/>
    <path d="M80.19,115L231.25,115C236.807,115 241.38,119.573 241.38,125.13C241.38,130.687 236.807,135.26 231.25,135.26L80.19,135.26L80.19,115Z" style="fill:rgb(17,15,73);fill-rule:nonzero;"/>
    <rect x="80.19" y="115" width="121.98" height="20.25" style="fill:rgb(155,201,255);"/>
    <circle cx="220.28" cy="123.98" r="4.89" style="fill:none;stroke:white;stroke-width:1.45px;"/>
    <g transform="matrix(1,0,0,1,-22.35,-30.32)">
        <path d="M247.1,162.25L245.1,158.52" style="fill:none;fill-rule:nonzero;stroke:white;stroke-width:1.45px;"/>
    </g>
    <path d="M197.31,155.97C197.31,154.679 196.261,153.63 194.97,153.63L120.81,153.63C119.519,153.63 118.47,154.679 118.47,155.97C118.47,157.261 119.519,158.31 120.81,158.31L194.97,158.31C196.261,158.31 197.31,157.261 197.31,155.97Z" style="fill:rgb(17,15,73);"/>
    <path d="M167.46,186.76C167.46,185.96 166.81,185.31 166.01,185.31L119.92,185.31C119.12,185.31 118.47,185.96 118.47,186.76L118.47,186.77C118.47,187.57 119.12,188.22 119.92,188.22L166.01,188.22C166.81,188.22 167.46,187.57 167.46,186.77L167.46,186.76Z" style="fill:rgb(17,15,73);fill-opacity:0.31;"/>
    <path d="M167.46,193.87C167.46,193.07 166.81,192.42 166.01,192.42L119.92,192.42C119.12,192.42 118.47,193.07 118.47,193.87L118.47,193.88C118.47,194.68 119.12,195.33 119.92,195.33L166.01,195.33C166.81,195.33 167.46,194.68 167.46,193.88L167.46,193.87Z" style="fill:rgb(17,15,73);fill-opacity:0.31;"/>
    <path d="M197.31,180.43C197.31,179.139 196.261,178.09 194.97,178.09L120.81,178.09C119.519,178.09 118.47,179.139 118.47,180.43C118.47,181.721 119.519,182.77 120.81,182.77L194.97,182.77C196.261,182.77 197.31,181.721 197.31,180.43Z" style="fill:rgb(17,15,73);"/>
    <path d="M167.46,211.22C167.46,210.42 166.81,209.77 166.01,209.77L119.92,209.77C119.12,209.77 118.47,210.42 118.47,211.22L118.47,211.23C118.47,212.03 119.12,212.68 119.92,212.68L166.01,212.68C166.81,212.68 167.46,212.03 167.46,211.23L167.46,211.22Z" style="fill:rgb(17,15,73);fill-opacity:0.31;"/>
    <path d="M167.46,218.34C167.46,217.54 166.81,216.89 166.01,216.89L119.92,216.89C119.12,216.89 118.47,217.54 118.47,218.34L118.47,218.35C118.47,219.15 119.12,219.8 119.92,219.8L166.01,219.8C166.81,219.8 167.46,219.15 167.46,218.35L167.46,218.34Z" style="fill:rgb(17,15,73);fill-opacity:0.31;"/>
    <path d="M197.31,204.9C197.31,203.609 196.261,202.56 194.97,202.56L120.81,202.56C119.519,202.56 118.47,203.609 118.47,204.9C118.47,206.191 119.519,207.24 120.81,207.24L194.97,207.24C196.261,207.24 197.31,206.191 197.31,204.9Z" style="fill:rgb(17,15,73);"/>
    <g opacity="0.41">
        <g transform="matrix(1,0,0,1,-22.35,-30.32)">
            <path d="M229.21,115.73C234.611,115.724 239.979,116.564 245.12,118.22L245.12,110.91C239.945,109.463 234.596,108.73 229.222,108.73C196.823,108.73 170.162,135.391 170.162,167.79C170.162,200.189 196.823,226.85 229.222,226.85C234.596,226.85 239.945,226.117 245.12,224.67L245.12,217.36C239.979,219.01 234.612,219.85 229.212,219.85C200.653,219.85 177.152,196.349 177.152,167.79C177.152,139.232 200.652,115.731 229.21,115.73Z" style="fill:url(#_Linear1);fill-rule:nonzero;"/>
        </g>
    </g>
    <g transform="matrix(1,0,0,1,-22.35,-30.32)">
        <path d="M232.36,224C199.961,224 173.3,197.339 173.3,164.94C173.3,132.541 199.961,105.88 232.36,105.88C264.759,105.88 291.42,132.541 291.42,164.94C291.42,164.96 291.42,164.98 291.42,165C291.349,197.362 264.722,223.962 232.36,224ZM232.36,112.88C203.801,112.88 180.3,136.381 180.3,164.94C180.3,193.499 203.801,217 232.36,217C260.897,217 284.387,193.537 284.42,165C284.409,136.44 260.92,112.937 232.36,112.91L232.36,112.88Z" style="fill:rgb(17,15,73);fill-rule:nonzero;stroke:black;stroke-width:4.5px;stroke-linejoin:round;stroke-miterlimit:2;"/>
    </g>
    <g transform="matrix(1,0,0,1,-22.35,-30.32)">
        <path d="M312.35,252.45C310.742,252.451 309.199,251.806 308.07,250.66L269.37,211.39C268.258,210.267 267.633,208.749 267.633,207.168C267.633,203.877 270.342,201.168 273.633,201.168C275.246,201.168 276.792,201.818 277.92,202.97L316.62,242.24C317.725,243.362 318.345,244.875 318.345,246.45C318.345,249.74 315.64,252.447 312.35,252.45Z" style="fill:rgb(17,15,73);fill-rule:nonzero;"/>
    </g>
    <g transform="matrix(1,0,0,1,-22.35,-30.32)">
        <path d="M330.89,264.93C329.569,266.237 327.783,266.971 325.925,266.971C324.032,266.971 322.217,266.21 320.89,264.86L275.33,218.62C275.076,218.368 274.845,218.094 274.64,217.8C274.52,217.64 274.41,217.48 274.31,217.32C273.647,216.202 273.759,214.78 274.59,213.78C275.475,212.726 276.441,211.743 277.48,210.84C278.673,209.781 279.965,208.84 281.34,208.03C282.487,207.341 283.956,207.467 284.97,208.34C285.107,208.448 285.238,208.565 285.36,208.69L331,254.94C332.292,256.259 333.016,258.034 333.016,259.88C333.016,261.78 332.249,263.602 330.89,264.93Z" style="fill:rgb(71,63,71);fill-rule:nonzero;"/>
    </g>
    <g transform="matrix(1,0,0,1,-22.35,-30.32)">
        <path d="M167.05,104.39L167.05,124.75C167.05,130.27 162.52,134.818 157,134.84L121.1,134.84L121.1,94.3L157,94.3C162.52,94.322 167.05,98.87 167.05,104.39Z" style="fill:rgb(17,15,73);fill-opacity:0.18;fill-rule:nonzero;"/>
    </g>
    <path d="M142.96,68.72C142.96,63.151 138.439,58.63 132.87,58.63L66.05,58.63C60.481,58.63 55.96,63.151 55.96,68.72L55.96,89.08C55.96,94.649 60.481,99.17 66.05,99.17L132.87,99.17C138.439,99.17 142.96,94.649 142.96,89.08L142.96,68.72Z" style="fill:rgb(155,201,255);"/>
    <circle cx="139.91" cy="59.85" r="7.27" style="fill:rgb(17,15,73);"/>
    <path d="M124.38,73.58C124.38,72.476 123.484,71.58 122.38,71.58L75.14,71.58C74.036,71.58 73.14,72.476 73.14,73.58L73.14,73.59C73.14,74.694 74.036,75.59 75.14,75.59L122.38,75.59C123.484,75.59 124.38,74.694 124.38,73.59L124.38,73.58Z" style="fill:rgb(17,15,73);"/>
    <path d="M124.38,84.25C124.38,83.146 123.484,82.25 122.38,82.25L75.14,82.25C74.036,82.25 73.14,83.146 73.14,84.25L73.14,84.26C73.14,85.364 74.036,86.26 75.14,86.26L122.38,86.26C123.484,86.26 124.38,85.364 124.38,84.26L124.38,84.25Z" style="fill:rgb(17,15,73);"/>
    <defs>
        <linearGradient id="_Linear1" x1="0" y1="0" x2="1" y2="0" gradientUnits="userSpaceOnUse" gradientTransform="matrix(168.5,-675.04,675.04,168.5,157.8,392.22)"><stop offset="0" style="stop-color:black;stop-opacity:1"/><stop offset="0.01" style="stop-color:black;stop-opacity:1"/><stop offset="0.08" style="stop-color:black;stop-opacity:0.69"/><stop offset="0.21" style="stop-color:black;stop-opacity:0.32"/><stop offset="1" style="stop-color:black;stop-opacity:0"/></linearGradient>
    </defs>
</svg>
