<svg width="463" height="355" viewBox="0 0 463 355" fill="none" xmlns="http://www.w3.org/2000/svg">
<g clip-path="url(#clip0)">
<path opacity="0.2" d="M207.181 37.4561H173.976V18.728H207.181V37.4561ZM175.379 36.0515H205.778V20.1326H175.379V36.0515Z" fill="#110F49"/>
<path opacity="0.2" d="M240.386 37.4561H207.181V18.728H240.386V37.4561ZM208.584 36.0515H238.983V20.1326H208.584V36.0515Z" fill="#110F49"/>
<path opacity="0.2" d="M273.591 37.4561H240.386V18.728H273.591V37.4561ZM241.789 36.0515H272.188V20.1326H241.789V36.0515Z" fill="#110F49"/>
<path opacity="0.2" d="M306.796 37.4561H273.591V18.728H306.796V37.4561ZM274.994 36.0515H305.393V20.1326H274.994V36.0515Z" fill="#110F49"/>
<path opacity="0.2" d="M273.591 18.7281H240.386V0H273.591V18.7281ZM241.789 17.3235H272.188V1.40461H241.789V17.3235Z" fill="#110F49"/>
<path opacity="0.2" d="M240.386 18.7281H207.181V0H240.386V18.7281ZM208.584 17.3235H238.983V1.40461H208.584V17.3235Z" fill="#110F49"/>
<path opacity="0.2" d="M84.1818 37.4561H50.9767V18.728H84.1818V37.4561ZM52.3798 36.0515H82.7788V20.1326H52.3798V36.0515Z" fill="#110F49"/>
<path opacity="0.2" d="M117.387 37.4561H84.1818V18.728H117.387V37.4561ZM85.5849 36.0515H115.984V20.1326H85.5849V36.0515Z" fill="#110F49"/>
<path opacity="0.2" d="M117.387 18.7281H84.1818V0H117.387V18.7281ZM85.5849 17.3235H115.984V1.40461H85.5849V17.3235Z" fill="#110F49"/>
<path opacity="0.2" d="M374.141 37.4561H340.936V18.728H374.141V37.4561ZM342.339 36.0515H372.738V20.1326H342.339V36.0515Z" fill="#110F49"/>
<path opacity="0.2" d="M407.346 37.4561H374.141V18.728H407.346V37.4561ZM375.544 36.0515H405.943V20.1326H375.544V36.0515Z" fill="#110F49"/>
<path opacity="0.2" d="M407.346 18.7281H374.141V0H407.346V18.7281ZM375.544 17.3235H405.943V1.40461H375.544V17.3235Z" fill="#110F49"/>
<path d="M382.56 312.759H349.354V294.031H382.56V312.759ZM350.758 311.354H381.157V295.435H350.758V311.354Z" fill="#C9C9CC"/>
<path d="M415.765 311.822H382.56V293.094H415.765V311.822ZM383.963 310.418H414.362V294.499H383.963V310.418Z" fill="#C9C9CC"/>
<path d="M448.97 311.822H415.765V293.094H448.97V311.822ZM417.168 310.418H447.567V294.499H417.168V310.418Z" fill="#C9C9CC"/>
<path d="M448.97 293.094H415.765V274.366H448.97V293.094ZM417.168 291.69H447.567V275.771H417.168V291.69Z" fill="#C9C9CC"/>
<path d="M415.765 293.094H382.56V274.366H415.765V293.094ZM383.963 291.69H414.362V275.771H383.963V291.69Z" fill="#C9C9CC"/>
<path d="M41.6232 311.822H8.41815V293.094H41.6232V311.822ZM9.82118 310.418H40.2202V294.499H9.82118V310.418Z" fill="#C9C9CC"/>
<path d="M74.8283 311.822H41.6232V293.094H74.8283V311.822ZM43.0263 310.418H73.4252V294.499H43.0263V310.418Z" fill="#C9C9CC"/>
<path d="M108.033 311.822H74.8282V293.094H108.033V311.822ZM76.2313 310.418H106.63V294.499H76.2313V310.418Z" fill="#C9C9CC"/>
<path d="M141.238 312.759H108.033V294.031H141.238V312.759ZM109.436 311.354H139.835V295.435H109.436V311.354Z" fill="#C9C9CC"/>
<path d="M108.033 293.094H74.8282V274.366H108.033V293.094ZM76.2313 291.69H106.63V275.771H76.2313V291.69Z" fill="#C9C9CC"/>
<path d="M74.8283 293.094H41.6232V274.366H74.8283V293.094ZM43.0263 291.69H73.4252V275.771H43.0263V291.69Z" fill="#C9C9CC"/>
<path d="M463 37.4561H0V273.898H463V37.4561Z" fill="#9BC9FF"/>
<path d="M0 36.6451V273.555H463V36.6451H0ZM20.5778 57.246H221.211V144.8H20.5778V57.246ZM20.5778 165.401H221.211V252.954H20.5778V165.401ZM442.422 252.954H241.789V165.401H442.422V252.954ZM442.422 144.8H241.789V57.246H442.422V144.8Z" fill="#110F49"/>
<path d="M78.9438 254.093C78.9438 254.093 72.705 232.888 80.113 217.297C83.2629 210.771 84.2131 203.397 82.8209 196.284C82.1339 192.904 81.1383 189.594 79.8464 186.396" stroke="#535461" stroke-width="2" stroke-miterlimit="10"/>
<path d="M84.4578 176.564C84.4578 179.162 79.7576 186.7 79.7576 186.7C79.7576 186.7 75.0528 179.139 75.0528 176.564C75.0528 175.316 75.548 174.119 76.4294 173.236C77.3109 172.354 78.5064 171.858 79.7529 171.858C80.9995 171.858 82.195 172.354 83.0764 173.236C83.9579 174.119 84.4531 175.316 84.4531 176.564H84.4578Z" fill="#110F49"/>
<path d="M92.2259 190.937C90.8228 193.119 82.7788 196.888 82.7788 196.888C82.7788 196.888 82.9238 187.992 84.3362 185.825C84.6652 185.292 85.097 184.831 85.6063 184.468C86.1156 184.105 86.6922 183.847 87.3022 183.71C87.9123 183.573 88.5436 183.559 89.1591 183.669C89.7746 183.779 90.362 184.011 90.8869 184.351C91.4118 184.691 91.8637 185.132 92.216 185.65C92.5683 186.167 92.8139 186.749 92.9386 187.362C93.0633 187.976 93.0645 188.608 92.9421 189.222C92.8197 189.836 92.5762 190.419 92.2259 190.937Z" fill="#110F49"/>
<path d="M91.8844 215.537C89.5461 216.707 80.7303 215.897 80.7303 215.897C80.7303 215.897 85.337 208.303 87.652 207.133C88.7652 206.571 90.0558 206.474 91.2398 206.865C92.4238 207.256 93.4044 208.102 93.9656 209.216C94.5269 210.33 94.6229 211.623 94.2326 212.808C93.8423 213.993 92.9977 214.975 91.8844 215.537Z" fill="#110F49"/>
<path d="M87.4556 234.092C85.3698 235.637 76.5213 236.334 76.5213 236.334C76.5213 236.334 79.795 228.07 81.8668 226.502C82.3631 226.133 82.9271 225.866 83.5266 225.715C84.126 225.564 84.7493 225.533 85.3608 225.624C85.9722 225.714 86.5599 225.924 87.0903 226.242C87.6206 226.56 88.0832 226.979 88.4517 227.476C88.8202 227.973 89.0874 228.537 89.2379 229.137C89.3885 229.738 89.4195 230.362 89.3291 230.974C89.2388 231.586 89.0289 232.174 88.7115 232.705C88.394 233.236 87.9752 233.699 87.479 234.068L87.4556 234.092Z" fill="#110F49"/>
<path d="M72.9062 197.389C74.7769 199.201 83.4429 201.074 83.4429 201.074C83.4429 201.074 81.3197 192.45 79.4583 190.638C79.0175 190.198 78.4938 189.849 77.9175 189.614C77.3412 189.378 76.7239 189.259 76.1013 189.264C75.4788 189.269 74.8634 189.398 74.291 189.643C73.7186 189.888 73.2005 190.244 72.7668 190.692C72.3331 191.139 71.9925 191.668 71.7647 192.248C71.537 192.828 71.4266 193.447 71.44 194.071C71.4534 194.694 71.5903 195.308 71.8428 195.878C72.0953 196.447 72.4583 196.961 72.9108 197.389H72.9062Z" fill="#31A527"/>
<path d="M67.9862 219.17C70.3246 220.34 79.1403 219.53 79.1403 219.53C79.1403 219.53 74.5337 211.936 72.2187 210.766C71.1055 210.204 69.8149 210.108 68.6308 210.498C67.4468 210.889 66.4663 211.735 65.905 212.849C65.3438 213.964 65.2477 215.256 65.638 216.441C66.0283 217.626 66.873 218.608 67.9862 219.17Z" fill="#31A527"/>
<path d="M66.1015 240.969C68.1873 242.515 77.0357 243.212 77.0357 243.212C77.0357 243.212 73.762 234.948 71.6902 233.38C70.688 232.635 69.4312 232.319 68.1963 232.502C66.9614 232.684 65.8495 233.35 65.1053 234.354C64.3611 235.357 64.0455 236.615 64.2279 237.852C64.4103 239.088 65.0759 240.201 66.0781 240.946L66.1015 240.969Z" fill="#31A527"/>
<path opacity="0.5" d="M84.4578 176.564C84.4578 179.162 79.7576 186.7 79.7576 186.7C79.7576 186.7 75.0528 179.139 75.0528 176.564C75.0528 175.316 75.548 174.119 76.4294 173.236C77.3109 172.354 78.5064 171.858 79.7529 171.858C80.9995 171.858 82.195 172.354 83.0764 173.236C83.9579 174.119 84.4531 175.316 84.4531 176.564H84.4578Z" fill="#31A527"/>
<path opacity="0.5" d="M92.2259 190.937C90.8228 193.119 82.7788 196.888 82.7788 196.888C82.7788 196.888 82.9238 187.992 84.3362 185.825C84.6652 185.292 85.097 184.831 85.6063 184.468C86.1156 184.105 86.6922 183.847 87.3022 183.71C87.9123 183.573 88.5436 183.559 89.1591 183.669C89.7746 183.779 90.362 184.011 90.8869 184.351C91.4118 184.691 91.8637 185.132 92.216 185.65C92.5683 186.167 92.8139 186.749 92.9386 187.362C93.0633 187.976 93.0645 188.608 92.9421 189.222C92.8197 189.836 92.5762 190.419 92.2259 190.937Z" fill="#31A527"/>
<path opacity="0.5" d="M91.8844 215.537C89.5461 216.707 80.7303 215.897 80.7303 215.897C80.7303 215.897 85.337 208.303 87.652 207.133C88.7652 206.571 90.0558 206.474 91.2398 206.865C92.4238 207.256 93.4044 208.102 93.9656 209.216C94.5269 210.33 94.6229 211.623 94.2326 212.808C93.8423 213.993 92.9977 214.975 91.8844 215.537Z" fill="#31A527"/>
<path opacity="0.5" d="M87.4556 234.092C85.3698 235.637 76.5213 236.334 76.5213 236.334C76.5213 236.334 79.795 228.07 81.8668 226.502C82.3631 226.133 82.9271 225.866 83.5266 225.715C84.126 225.564 84.7493 225.533 85.3608 225.624C85.9722 225.714 86.5599 225.924 87.0903 226.242C87.6206 226.56 88.0832 226.979 88.4517 227.476C88.8202 227.973 89.0874 228.537 89.2379 229.137C89.3885 229.738 89.4195 230.362 89.3291 230.974C89.2388 231.586 89.0289 232.174 88.7115 232.705C88.394 233.236 87.9752 233.699 87.479 234.068L87.4556 234.092Z" fill="#31A527"/>
<path opacity="0.5" d="M72.9062 197.389C74.7769 199.201 83.4429 201.074 83.4429 201.074C83.4429 201.074 81.3197 192.45 79.4583 190.638C79.0175 190.198 78.4938 189.849 77.9175 189.614C77.3412 189.378 76.7239 189.259 76.1013 189.264C75.4788 189.269 74.8634 189.398 74.291 189.643C73.7186 189.888 73.2005 190.244 72.7668 190.692C72.3331 191.139 71.9925 191.668 71.7647 192.248C71.537 192.828 71.4266 193.447 71.44 194.071C71.4534 194.694 71.5903 195.308 71.8428 195.878C72.0953 196.447 72.4583 196.961 72.9108 197.389H72.9062Z" fill="#31A527"/>
<path opacity="0.5" d="M67.9862 219.17C70.3246 220.34 79.1403 219.53 79.1403 219.53C79.1403 219.53 74.5337 211.936 72.2187 210.766C71.1055 210.204 69.8149 210.108 68.6308 210.498C67.4468 210.889 66.4663 211.735 65.905 212.849C65.3438 213.964 65.2477 215.256 65.638 216.441C66.0283 217.626 66.873 218.608 67.9862 219.17Z" fill="#31A527"/>
<path opacity="0.5" d="M66.1015 240.969C68.1873 242.515 77.0357 243.212 77.0357 243.212C77.0357 243.212 73.762 234.948 71.6902 233.38C70.688 232.635 69.4312 232.319 68.1963 232.502C66.9614 232.684 65.8495 233.35 65.1053 234.354C64.3611 235.357 64.0455 236.615 64.2279 237.852C64.4103 239.088 65.0759 240.201 66.0781 240.946L66.1015 240.969Z" fill="#31A527"/>
<path d="M37.6425 253.246C37.6425 253.246 33.6625 239.718 38.3884 229.772C40.3978 225.609 41.0039 220.905 40.1158 216.367C39.6776 214.211 39.0424 212.099 38.2183 210.059" stroke="#535461" stroke-width="2" stroke-miterlimit="10"/>
<path d="M41.1601 203.787C41.1601 205.444 38.1617 210.253 38.1617 210.253C38.1617 210.253 35.1603 205.429 35.1603 203.787C35.1603 202.991 35.4762 202.227 36.0385 201.664C36.6008 201.101 37.3634 200.785 38.1587 200.785C38.9539 200.785 39.7166 201.101 40.2789 201.664C40.8412 202.227 41.1571 202.991 41.1571 203.787H41.1601Z" fill="#110F49"/>
<path d="M46.1156 212.956C45.2206 214.348 40.089 216.753 40.089 216.753C40.089 216.753 40.1815 211.078 41.0825 209.695C41.2924 209.355 41.5679 209.061 41.8928 208.829C42.2177 208.598 42.5855 208.433 42.9747 208.346C43.3638 208.258 43.7665 208.249 44.1592 208.319C44.5519 208.389 44.9266 208.537 45.2615 208.754C45.5963 208.971 45.8846 209.253 46.1093 209.583C46.3341 209.913 46.4908 210.284 46.5703 210.676C46.6499 211.067 46.6506 211.47 46.5726 211.862C46.4945 212.253 46.3391 212.625 46.1156 212.956Z" fill="#110F49"/>
<path d="M45.8978 228.649C44.4061 229.396 38.7822 228.879 38.7822 228.879C38.7822 228.879 41.721 224.034 43.1978 223.288C43.908 222.929 44.7313 222.868 45.4866 223.117C46.2419 223.366 46.8675 223.906 47.2255 224.617C47.5836 225.328 47.6448 226.152 47.3958 226.908C47.1469 227.664 46.608 228.291 45.8978 228.649Z" fill="#110F49"/>
<path d="M43.0724 240.486C41.7418 241.472 36.097 241.917 36.097 241.917C36.097 241.917 38.1855 236.645 39.5072 235.644C39.8237 235.409 40.1835 235.238 40.566 235.142C40.9484 235.046 41.346 235.026 41.7361 235.084C42.1261 235.142 42.501 235.276 42.8394 235.478C43.1777 235.681 43.4728 235.949 43.7079 236.266C43.943 236.582 44.1134 236.943 44.2095 237.325C44.3055 237.708 44.3253 238.106 44.2676 238.497C44.21 238.887 44.0761 239.263 43.8736 239.601C43.6711 239.94 43.4039 240.236 43.0874 240.471L43.0724 240.486Z" fill="#110F49"/>
<path d="M33.7909 217.072C34.9843 218.228 40.5127 219.423 40.5127 219.423C40.5127 219.423 39.1582 213.921 37.9707 212.765C37.6895 212.484 37.3554 212.262 36.9878 212.112C36.6202 211.961 36.2263 211.886 35.8292 211.889C35.432 211.892 35.0395 211.974 34.6743 212.13C34.3091 212.287 33.9786 212.514 33.702 212.799C33.4253 213.085 33.208 213.422 33.0627 213.792C32.9174 214.162 32.847 214.558 32.8556 214.955C32.8641 215.353 32.9515 215.744 33.1125 216.108C33.2736 216.471 33.5052 216.799 33.7939 217.072H33.7909Z" fill="#31A527"/>
<path d="M30.6522 230.967C32.144 231.714 37.7678 231.197 37.7678 231.197C37.7678 231.197 34.8291 226.352 33.3523 225.606C32.6421 225.247 31.8188 225.186 31.0634 225.435C30.3081 225.684 29.6826 226.224 29.3246 226.935C28.9665 227.646 28.9052 228.47 29.1542 229.226C29.4032 229.982 29.942 230.609 30.6522 230.967Z" fill="#31A527"/>
<path d="M29.4499 244.874C30.7805 245.859 36.4253 246.304 36.4253 246.304C36.4253 246.304 34.3368 241.033 33.0151 240.032C32.3758 239.557 31.574 239.355 30.7862 239.472C29.9984 239.588 29.2891 240.013 28.8144 240.653C28.3396 241.293 28.1383 242.096 28.2547 242.885C28.371 243.673 28.7956 244.383 29.4349 244.859L29.4499 244.874Z" fill="#31A527"/>
<path opacity="0.5" d="M41.1601 203.787C41.1601 205.444 38.1617 210.253 38.1617 210.253C38.1617 210.253 35.1603 205.429 35.1603 203.787C35.1603 202.991 35.4762 202.227 36.0385 201.664C36.6008 201.101 37.3634 200.785 38.1587 200.785C38.9539 200.785 39.7166 201.101 40.2789 201.664C40.8412 202.227 41.1571 202.991 41.1571 203.787H41.1601Z" fill="#31A527"/>
<path opacity="0.5" d="M46.1156 212.956C45.2206 214.348 40.089 216.753 40.089 216.753C40.089 216.753 40.1815 211.078 41.0825 209.695C41.2924 209.355 41.5679 209.061 41.8928 208.829C42.2177 208.598 42.5855 208.433 42.9747 208.346C43.3638 208.258 43.7665 208.249 44.1592 208.319C44.5519 208.389 44.9266 208.537 45.2615 208.754C45.5963 208.971 45.8846 209.253 46.1093 209.583C46.3341 209.913 46.4908 210.284 46.5703 210.676C46.6499 211.067 46.6506 211.47 46.5726 211.862C46.4945 212.253 46.3391 212.625 46.1156 212.956Z" fill="#31A527"/>
<path opacity="0.5" d="M45.8978 228.649C44.4061 229.396 38.7822 228.879 38.7822 228.879C38.7822 228.879 41.721 224.034 43.1978 223.288C43.908 222.929 44.7313 222.868 45.4866 223.117C46.2419 223.366 46.8675 223.906 47.2255 224.617C47.5836 225.328 47.6448 226.152 47.3958 226.908C47.1469 227.664 46.608 228.291 45.8978 228.649Z" fill="#31A527"/>
<path opacity="0.5" d="M43.0724 240.486C41.7418 241.472 36.097 241.917 36.097 241.917C36.097 241.917 38.1855 236.645 39.5072 235.644C39.8237 235.409 40.1835 235.238 40.566 235.142C40.9484 235.046 41.346 235.026 41.7361 235.084C42.1261 235.142 42.501 235.276 42.8394 235.478C43.1777 235.681 43.4728 235.949 43.7079 236.266C43.943 236.582 44.1134 236.943 44.2095 237.325C44.3055 237.708 44.3253 238.106 44.2676 238.497C44.21 238.887 44.0761 239.263 43.8736 239.601C43.6711 239.94 43.4039 240.236 43.0874 240.471L43.0724 240.486Z" fill="#31A527"/>
<path opacity="0.5" d="M33.7909 217.072C34.9843 218.228 40.5127 219.423 40.5127 219.423C40.5127 219.423 39.1582 213.921 37.9707 212.765C37.6895 212.484 37.3554 212.262 36.9878 212.112C36.6202 211.961 36.2263 211.886 35.8292 211.889C35.432 211.892 35.0395 211.974 34.6743 212.13C34.3091 212.287 33.9786 212.514 33.702 212.799C33.4253 213.085 33.208 213.422 33.0627 213.792C32.9174 214.162 32.847 214.558 32.8556 214.955C32.8641 215.353 32.9515 215.744 33.1125 216.108C33.2736 216.471 33.5052 216.799 33.7939 217.072H33.7909Z" fill="#31A527"/>
<path opacity="0.5" d="M30.6522 230.967C32.144 231.714 37.7678 231.197 37.7678 231.197C37.7678 231.197 34.8291 226.352 33.3523 225.606C32.6421 225.247 31.8188 225.186 31.0634 225.435C30.3081 225.684 29.6826 226.224 29.3246 226.935C28.9665 227.646 28.9052 228.47 29.1542 229.226C29.4032 229.982 29.942 230.609 30.6522 230.967Z" fill="#31A527"/>
<path opacity="0.5" d="M29.4499 244.874C30.7805 245.859 36.4253 246.304 36.4253 246.304C36.4253 246.304 34.3368 241.033 33.0151 240.032C32.3758 239.557 31.574 239.355 30.7862 239.472C29.9984 239.588 29.2891 240.013 28.8144 240.653C28.3396 241.293 28.1383 242.096 28.2547 242.885C28.371 243.673 28.7956 244.383 29.4349 244.859L29.4499 244.874Z" fill="#31A527"/>
<path d="M418.134 253.246C418.134 253.246 422.48 239.718 417.319 229.772C415.125 225.609 414.463 220.905 415.433 216.367C415.911 214.211 416.605 212.099 417.505 210.059" stroke="#535461" stroke-width="2" stroke-miterlimit="10"/>
<path d="M414.292 203.787C414.292 205.444 417.567 210.253 417.567 210.253C417.567 210.253 420.844 205.429 420.844 203.787C420.844 202.991 420.499 202.227 419.885 201.664C419.271 201.101 418.438 200.785 417.57 200.785C416.701 200.785 415.869 201.101 415.255 201.664C414.641 202.227 414.296 202.991 414.296 203.787H414.292Z" fill="#110F49"/>
<path d="M408.881 212.956C409.858 214.348 415.462 216.752 415.462 216.752C415.462 216.752 415.361 211.078 414.377 209.695C414.148 209.355 413.847 209.061 413.492 208.829C413.137 208.598 412.736 208.433 412.311 208.346C411.886 208.258 411.446 208.249 411.017 208.319C410.588 208.389 410.179 208.537 409.813 208.754C409.448 208.971 409.133 209.253 408.888 209.583C408.642 209.913 408.471 210.284 408.384 210.676C408.297 211.067 408.296 211.47 408.382 211.862C408.467 212.253 408.637 212.625 408.881 212.956Z" fill="#110F49"/>
<path d="M409.118 228.649C410.747 229.396 416.889 228.879 416.889 228.879C416.889 228.879 413.68 224.034 412.067 223.288C411.291 222.929 410.392 222.868 409.568 223.117C408.743 223.366 408.06 223.906 407.669 224.617C407.278 225.328 407.211 226.152 407.483 226.908C407.754 227.664 408.343 228.291 409.118 228.649Z" fill="#110F49"/>
<path d="M412.204 240.486C413.657 241.472 419.821 241.917 419.821 241.917C419.821 241.917 417.541 236.645 416.097 235.644C415.752 235.409 415.359 235.238 414.941 235.142C414.523 235.046 414.089 235.026 413.663 235.084C413.237 235.142 412.828 235.276 412.458 235.478C412.089 235.681 411.767 235.949 411.51 236.266C411.253 236.582 411.067 236.943 410.962 237.326C410.857 237.708 410.836 238.106 410.899 238.497C410.962 238.887 411.108 239.263 411.329 239.601C411.55 239.94 411.842 240.236 412.188 240.471L412.204 240.486Z" fill="#110F49"/>
<path d="M422.34 217.072C421.036 218.228 414.999 219.423 414.999 219.423C414.999 219.423 416.478 213.921 417.775 212.765C418.082 212.484 418.447 212.262 418.849 212.112C419.25 211.961 419.68 211.886 420.114 211.889C420.547 211.892 420.976 211.974 421.375 212.13C421.774 212.287 422.135 212.514 422.437 212.799C422.739 213.085 422.976 213.422 423.135 213.792C423.293 214.162 423.37 214.558 423.361 214.955C423.352 215.353 423.256 215.744 423.08 216.108C422.905 216.471 422.652 216.799 422.336 217.072H422.34Z" fill="#31A527"/>
<path d="M425.767 230.967C424.138 231.714 417.997 231.197 417.997 231.197C417.997 231.197 421.206 226.352 422.819 225.605C423.594 225.247 424.493 225.186 425.318 225.435C426.143 225.684 426.826 226.224 427.217 226.935C427.608 227.646 427.675 228.47 427.403 229.226C427.131 229.982 426.543 230.608 425.767 230.967Z" fill="#31A527"/>
<path d="M427.08 244.874C425.627 245.859 419.463 246.304 419.463 246.304C419.463 246.304 421.743 241.033 423.187 240.032C423.885 239.557 424.76 239.355 425.621 239.472C426.481 239.588 427.256 240.013 427.774 240.653C428.293 241.293 428.512 242.096 428.385 242.885C428.258 243.673 427.795 244.383 427.096 244.859L427.08 244.874Z" fill="#31A527"/>
<path opacity="0.5" d="M414.292 203.787C414.292 205.444 417.567 210.253 417.567 210.253C417.567 210.253 420.844 205.429 420.844 203.787C420.844 202.991 420.499 202.227 419.885 201.664C419.271 201.101 418.438 200.785 417.57 200.785C416.701 200.785 415.869 201.101 415.255 201.664C414.641 202.227 414.296 202.991 414.296 203.787H414.292Z" fill="#31A527"/>
<path opacity="0.5" d="M408.881 212.956C409.858 214.348 415.462 216.752 415.462 216.752C415.462 216.752 415.361 211.078 414.377 209.695C414.148 209.355 413.847 209.061 413.492 208.829C413.137 208.598 412.736 208.433 412.311 208.346C411.886 208.258 411.446 208.249 411.017 208.319C410.588 208.389 410.179 208.537 409.813 208.754C409.448 208.971 409.133 209.253 408.888 209.583C408.642 209.913 408.471 210.284 408.384 210.676C408.297 211.067 408.296 211.47 408.382 211.862C408.467 212.253 408.637 212.625 408.881 212.956Z" fill="#31A527"/>
<path opacity="0.5" d="M409.118 228.649C410.747 229.396 416.889 228.879 416.889 228.879C416.889 228.879 413.68 224.034 412.067 223.288C411.291 222.929 410.392 222.868 409.568 223.117C408.743 223.366 408.06 223.906 407.669 224.617C407.278 225.328 407.211 226.152 407.483 226.908C407.754 227.664 408.343 228.291 409.118 228.649Z" fill="#31A527"/>
<path opacity="0.5" d="M412.204 240.486C413.657 241.472 419.821 241.917 419.821 241.917C419.821 241.917 417.541 236.645 416.097 235.644C415.752 235.409 415.359 235.238 414.941 235.142C414.523 235.046 414.089 235.026 413.663 235.084C413.237 235.142 412.828 235.276 412.458 235.478C412.089 235.681 411.767 235.949 411.51 236.266C411.253 236.582 411.067 236.943 410.962 237.326C410.857 237.708 410.836 238.106 410.899 238.497C410.962 238.887 411.108 239.263 411.329 239.601C411.55 239.94 411.842 240.236 412.188 240.471L412.204 240.486Z" fill="#31A527"/>
<path opacity="0.5" d="M422.34 217.072C421.036 218.228 414.999 219.423 414.999 219.423C414.999 219.423 416.478 213.921 417.775 212.765C418.082 212.484 418.447 212.262 418.849 212.112C419.25 211.961 419.68 211.886 420.114 211.889C420.547 211.892 420.976 211.974 421.375 212.13C421.774 212.287 422.135 212.514 422.437 212.799C422.739 213.085 422.976 213.422 423.135 213.792C423.293 214.162 423.37 214.558 423.361 214.955C423.352 215.353 423.256 215.744 423.08 216.108C422.905 216.471 422.652 216.799 422.336 217.072H422.34Z" fill="#31A527"/>
<path opacity="0.5" d="M425.767 230.967C424.138 231.714 417.997 231.197 417.997 231.197C417.997 231.197 421.206 226.352 422.819 225.605C423.594 225.247 424.493 225.186 425.318 225.435C426.143 225.684 426.826 226.224 427.217 226.935C427.608 227.646 427.675 228.47 427.403 229.226C427.131 229.982 426.543 230.608 425.767 230.967Z" fill="#31A527"/>
<path opacity="0.5" d="M427.08 244.874C425.627 245.859 419.463 246.304 419.463 246.304C419.463 246.304 421.743 241.033 423.187 240.032C423.885 239.557 424.76 239.355 425.621 239.472C426.481 239.588 427.256 240.013 427.774 240.653C428.293 241.293 428.512 242.096 428.385 242.885C428.258 243.673 427.795 244.383 427.096 244.859L427.08 244.874Z" fill="#31A527"/>
<g opacity="0.7">
<path opacity="0.7" d="M169.818 284.142C169.818 284.142 129.299 269.31 123.752 290.187L139.293 329.736L140.958 355.019H174.813V333.58C174.813 333.58 169.818 312.155 182.586 298.975L169.818 284.142Z" fill="url(#paint0_linear)"/>
<g opacity="0.1">
<path opacity="0.1" d="M176.604 166.446C174.883 165.875 172.811 165.364 171.408 166.502C170.594 167.162 170.244 168.225 169.612 169.058C167.512 171.816 163.28 171.301 159.936 172.289C155.021 173.74 151.986 178.614 150.246 183.39C142.548 204.459 151.13 228.557 144.428 249.954C142.454 256.252 139.227 263.242 142.417 269.033C143.479 270.967 145.223 272.578 145.737 274.713C146.458 277.611 145.069 281.413 147.496 283.178C148.254 283.726 149.212 283.899 150.12 284.114C155.582 285.556 159.721 289.812 163.883 293.595C168.046 297.378 173.05 301.04 178.695 300.792C180.519 300.641 182.32 300.283 184.064 299.724L212.077 291.914C214.883 291.133 217.933 290.187 219.56 287.79C220.556 286.324 220.87 284.512 221.122 282.771C222.089 276.115 222.547 269.396 222.493 262.671C222.493 260.451 222.39 258.181 221.557 256.116C220.622 253.733 218.751 251.827 217.39 249.65C214.762 245.436 214.056 240.375 213.406 235.473C212.372 227.668 211.338 219.708 212.77 211.964C213.382 208.64 214.439 205.41 215.141 202.109C216.277 196.731 216.458 191.195 215.674 185.754C215.019 181.236 213.616 176.653 210.529 173.253C208.509 170.988 205.764 169.499 202.766 169.04C198.978 168.571 197.093 170.753 193.716 171.568C188.722 172.818 181.407 168.033 176.604 166.446Z" fill="url(#paint1_linear)"/>
</g>
<path opacity="0.7" d="M176.604 165.327C174.883 164.756 172.811 164.245 171.408 165.383C170.594 166.043 170.244 167.106 169.612 167.939C167.512 170.697 163.28 170.182 159.936 171.17C155.021 172.621 151.986 177.495 150.246 182.271C142.548 203.34 151.13 227.438 144.428 248.835C142.454 255.133 139.227 262.123 142.417 267.914C143.479 269.848 145.223 271.459 145.737 273.594C146.458 276.492 145.069 280.294 147.496 282.059C148.254 282.607 149.212 282.78 150.12 282.995C155.582 284.437 159.721 288.693 163.883 292.476C168.046 296.259 173.04 299.963 178.695 299.701C180.519 299.55 182.32 299.192 184.064 298.633L212.077 290.824C214.883 290.042 217.933 289.096 219.56 286.699C220.556 285.233 220.87 283.421 221.122 281.68C222.089 275.024 222.547 268.305 222.493 261.58C222.493 259.36 222.39 257.09 221.557 255.025C220.622 252.642 218.751 250.736 217.39 248.559C214.762 244.345 214.056 239.284 213.406 234.382C212.372 226.577 211.338 218.618 212.77 210.873C213.382 207.549 214.439 204.319 215.141 201.018C216.277 195.64 216.458 190.104 215.674 184.664C215.019 180.145 213.616 175.562 210.529 172.163C208.509 169.898 205.764 168.408 202.766 167.949C198.978 167.481 197.093 169.662 193.716 170.477C188.722 171.694 181.407 166.937 176.604 165.327Z" fill="url(#paint2_linear)"/>
<path opacity="0.7" d="M168.71 123.746C168.71 123.746 169.266 144.618 162.607 144.07C155.947 143.523 181.459 178.675 181.459 178.675L203.103 167.139C203.103 167.139 190.344 146.819 199.23 134.182C208.116 121.545 168.71 123.746 168.71 123.746Z" fill="url(#paint3_linear)"/>
<g opacity="0.1">
<path opacity="0.1" d="M131.52 301.171C131.52 301.171 127.082 331.384 115.979 323.144C104.877 314.903 106.542 301.171 106.542 301.171C106.542 301.171 128.19 242.945 127.082 234.152C125.973 225.36 164.028 157.04 164.028 157.04L178.124 269.31C178.124 269.31 135.958 284.69 131.52 301.171Z" fill="url(#paint4_linear)"/>
</g>
<path opacity="0.7" d="M130.412 301.171C130.412 301.171 125.973 331.384 114.871 323.144C103.768 314.903 105.433 301.171 105.433 301.171C105.433 301.171 127.082 242.945 125.969 234.152C124.856 225.36 162.915 157.04 162.915 157.04L177.011 269.31C177.011 269.31 134.85 284.69 130.412 301.171Z" fill="url(#paint5_linear)"/>
<path opacity="0.7" d="M169.818 136.93C169.818 136.93 148.169 151.749 139.835 151.21L133.367 152.971C126.972 154.688 121.183 158.162 116.656 162.999C112.129 167.837 109.043 173.846 107.748 180.347L107.645 180.871C104.325 198.452 103.212 246.794 103.212 246.794C103.212 246.794 103.768 259.435 109.315 262.713L144.858 286.881C144.858 286.881 143.75 260.517 157.069 257.769C170.389 255.02 153.739 256.668 153.739 256.668L129.317 242.388C129.317 242.388 129.874 220.963 136.534 213.828C143.193 206.692 166.507 169.349 166.507 169.349L159.847 146.28L169.818 136.93Z" fill="url(#paint6_linear)"/>
<g opacity="0.1">
<path opacity="0.1" d="M193.684 151.21C193.684 151.21 207.316 154.783 216.862 156.529C218.349 156.795 219.753 157.409 220.959 158.32C222.164 159.231 223.139 160.414 223.802 161.773C226.683 167.724 231.074 178.488 230.317 187.463L238.641 219.872L262.493 248.433L240.854 258.326L216.441 231.409L236.42 282.494L199.23 284.142C199.23 284.142 188.128 201.739 190.906 188.016L193.684 151.21Z" fill="url(#paint7_linear)"/>
</g>
<path opacity="0.7" d="M194.792 151.21C194.792 151.21 208.425 154.783 217.97 156.529C219.457 156.795 220.861 157.409 222.067 158.32C223.273 159.231 224.247 160.414 224.91 161.773C227.791 167.724 232.183 178.488 231.425 187.463L239.75 219.872L263.601 248.433L241.957 258.321L217.535 231.404L237.533 282.494L200.343 284.142C200.343 284.142 189.241 201.739 192.019 188.016L194.792 151.21Z" fill="url(#paint8_linear)"/>
<path opacity="0.7" d="M167.994 135.179L175.645 172.359L163.158 178.675L156.316 145.185L167.994 135.179Z" fill="url(#paint9_linear)"/>
<path opacity="0.7" d="M188.965 175.107L194.792 151.21L202.289 165.219L198.403 176.756L188.965 175.107Z" fill="url(#paint10_linear)"/>
<path opacity="0.1" d="M210.057 182.248C210.057 182.248 210.057 219.601 215.052 222.344L210.057 182.248Z" fill="url(#paint11_linear)"/>
<path opacity="0.1" d="M138.456 191.583C138.456 191.583 126.937 228.37 130.197 232.223L138.456 191.583Z" fill="url(#paint12_linear)"/>
<path opacity="0.1" d="M136.239 242.112C136.239 242.112 158.444 256.481 161.493 256.71L136.239 242.112Z" fill="url(#paint13_linear)"/>
<g opacity="0.1">
<path opacity="0.1" d="M169.262 125.942C169.262 125.942 169.346 129.158 169.046 133.03C171.026 137.628 174.311 141.543 178.492 144.29C182.674 147.037 187.569 148.494 192.571 148.481C193.941 148.48 195.309 148.37 196.663 148.153C196.518 144.042 197.308 139.917 199.787 136.397C208.668 123.746 169.262 125.942 169.262 125.942Z" fill="url(#paint14_linear)"/>
</g>
<path opacity="0.7" d="M192.019 146.271C206.119 146.271 217.549 134.958 217.549 121.002C217.549 107.047 206.119 95.7333 192.019 95.7333C177.919 95.7333 166.488 107.047 166.488 121.002C166.488 134.958 177.919 146.271 192.019 146.271Z" fill="url(#paint15_linear)"/>
<g opacity="0.1">
<path opacity="0.1" d="M208.219 110.379C211.31 110.791 215.234 109.77 215.847 106.736C216.6 102.906 211.423 100.415 210.623 96.59C210.324 95.1573 210.679 93.6591 210.506 92.203C210.16 89.272 207.765 87.0153 205.329 85.311C197.592 79.9487 188.221 77.4763 178.849 78.3255C177.689 78.4332 176.469 78.6204 175.575 79.3555C174.556 80.1842 174.172 81.5327 173.466 82.6329C171.072 86.4628 165.693 86.9123 161.835 89.3001C157.322 92.1093 155.086 97.5732 154.885 102.836C154.684 108.098 156.199 113.263 157.691 118.319C158.968 122.617 160.306 127.032 163.107 130.553C165.908 134.074 170.557 136.532 174.958 135.474C172.942 134.037 174.406 130.699 176.59 129.528C178.774 128.358 181.487 128.156 183.353 126.541C185.219 124.926 185.78 122.28 186.388 119.874C187.155 116.84 188.259 113.759 190.503 111.544C194.904 107.209 202.831 109.662 208.219 110.379Z" fill="url(#paint16_linear)"/>
</g>
<path opacity="0.7" d="M207.649 109.831C210.74 110.243 214.664 109.222 215.276 106.188C216.029 102.358 210.852 99.8675 210.052 96.0423C209.753 94.6096 210.109 93.1113 209.935 91.6552C209.589 88.7243 207.195 86.4675 204.758 84.7633C197.027 79.4035 187.663 76.9297 178.297 77.773C177.137 77.8807 175.917 78.068 175.023 78.8031C174.004 79.6318 173.62 80.9802 172.914 82.0805C170.52 85.9104 165.141 86.3598 161.283 88.7477C156.77 91.5569 154.534 97.0208 154.333 102.283C154.132 107.546 155.648 112.71 157.139 117.767C158.416 122.065 159.754 126.48 162.555 130.001C165.356 133.522 170.005 135.98 174.406 134.922C172.39 133.484 173.854 130.146 176.038 128.976C178.222 127.805 180.935 127.604 182.801 125.988C184.667 124.373 185.228 121.728 185.836 119.321C186.603 116.287 187.707 113.207 189.952 110.992C194.348 106.661 202.275 109.11 207.649 109.831Z" fill="url(#paint17_linear)"/>
<g opacity="0.1">
<path opacity="0.1" d="M187.604 124.411C187.23 127.023 186.397 131.546 184.831 134.402C182.759 138.119 180.987 141.995 179.532 145.995C179.532 145.995 189.755 153.828 194.965 159.179C196.569 160.86 198.621 162.044 200.878 162.591C203.135 163.138 205.501 163.025 207.695 162.265C210.403 161.291 212.774 159.409 213.406 155.878C214.397 150.311 213.219 146.112 212.105 143.626C211.569 142.451 211.288 141.176 211.282 139.884C211.275 138.592 211.543 137.314 212.068 136.134C212.452 135.292 212.901 134.631 213.401 134.468C213.401 134.468 203.411 132.272 202.855 135.015C202.298 137.759 194.53 140.507 192.865 135.563L192.398 124.663C192.369 124.046 192.102 123.463 191.654 123.037C191.206 122.611 190.611 122.375 189.994 122.379C189.418 122.373 188.859 122.575 188.42 122.948C187.981 123.322 187.692 123.841 187.604 124.411Z" fill="url(#paint18_linear)"/>
</g>
<path opacity="0.7" d="M187.604 124.963C187.23 127.576 186.397 132.099 184.831 134.955C182.759 138.671 180.987 142.548 179.532 146.547C179.532 146.547 189.755 154.38 194.965 159.732C196.569 161.413 198.621 162.597 200.878 163.144C203.135 163.691 205.501 163.578 207.695 162.817C210.403 161.843 212.774 159.961 213.406 156.431C214.397 150.864 213.219 146.664 212.105 144.178C211.569 143.004 211.288 141.728 211.282 140.437C211.275 139.145 211.543 137.867 212.068 136.687C212.452 135.844 212.901 135.184 213.401 135.02C213.401 135.02 203.411 132.824 202.855 135.568C202.298 138.312 194.53 141.06 192.865 136.116L192.398 125.216C192.369 124.598 192.102 124.016 191.654 123.59C191.206 123.164 190.611 122.928 189.994 122.931C189.418 122.926 188.859 123.128 188.42 123.501C187.981 123.874 187.692 124.393 187.604 124.963Z" fill="url(#paint19_linear)"/>
</g>
<path d="M170.361 283.782C170.361 283.782 131.464 269.38 126.137 289.649L141.056 328.041L142.641 352.608H175.145V331.796C175.145 331.796 170.351 310.994 182.628 298.189L170.361 283.782Z" fill="#535461"/>
<path opacity="0.1" d="M176.875 169.489C175.224 168.937 173.232 168.44 171.89 169.545C171.109 170.187 170.772 171.217 170.164 172.027C168.149 174.705 164.084 174.204 160.876 175.164C156.157 176.568 153.248 181.307 151.574 185.932C144.185 206.388 152.421 229.798 145.99 250.572C144.119 256.687 141 263.476 144.058 269.099C145.078 270.972 146.738 272.54 147.248 274.614C147.94 277.424 146.607 281.122 148.936 282.836C149.661 283.37 150.583 283.534 151.452 283.772C156.695 285.177 160.67 289.307 164.664 292.982C168.658 296.657 173.466 300.211 178.882 299.972C180.63 299.826 182.357 299.479 184.026 298.938L210.918 291.353C213.616 290.59 216.53 289.672 218.106 287.345C219.041 285.94 219.364 284.17 219.607 282.471C220.535 276.007 220.974 269.482 220.921 262.952C220.921 260.798 220.823 258.593 220.033 256.589C219.097 254.276 217.339 252.426 216.029 250.305C213.508 246.223 212.826 241.297 212.204 236.536C211.212 228.955 210.221 221.225 211.591 213.706C212.18 210.48 213.195 207.343 213.869 204.136C214.961 198.912 215.135 193.538 214.383 188.255C213.756 183.868 212.405 179.415 209.449 176.114C207.518 173.919 204.881 172.472 201.994 172.022C198.356 171.554 196.546 173.689 193.305 174.48C188.511 175.655 181.487 171.034 176.875 169.489Z" fill="black"/>
<path d="M176.875 168.422C175.224 167.869 173.232 167.373 171.89 168.478C171.109 169.119 170.772 170.149 170.164 170.959C168.149 173.637 164.084 173.136 160.876 174.096C156.157 175.501 153.248 180.239 151.574 184.865C144.185 205.321 152.421 228.731 145.99 249.505C144.119 255.62 141 262.408 144.058 268.032C145.078 269.904 146.738 271.473 147.248 273.547C147.94 276.356 146.607 280.055 148.936 281.769C149.661 282.302 150.583 282.466 151.452 282.705C156.695 284.11 160.67 288.239 164.664 291.915C168.658 295.59 173.466 299.144 178.882 298.905C180.63 298.758 182.357 298.411 184.026 297.87L210.922 290.29C213.621 289.527 216.534 288.609 218.11 286.282C219.046 284.877 219.368 283.108 219.612 281.408C220.539 274.944 220.979 268.419 220.926 261.889C220.926 259.735 220.828 257.53 220.037 255.526C219.102 253.213 217.343 251.364 216.034 249.243C213.513 245.16 212.83 240.234 212.208 235.473C211.217 227.893 210.225 220.163 211.596 212.643C212.185 209.417 213.2 206.28 213.873 203.073C214.965 197.85 215.139 192.475 214.388 187.192C213.761 182.805 212.409 178.352 209.454 175.051C207.529 172.854 204.896 171.402 202.013 170.945C198.374 170.477 196.565 172.612 193.324 173.403C188.511 174.593 181.487 169.967 176.875 168.422Z" fill="#E0E0E0"/>
<path d="M169.299 128.025C169.299 128.025 169.832 148.294 163.439 147.76C157.046 147.226 181.557 181.367 181.557 181.367L202.336 170.163C202.336 170.163 190.083 150.429 198.594 138.157C207.106 125.885 169.299 128.025 169.299 128.025Z" fill="#FDA57D"/>
<path opacity="0.1" d="M133.597 300.323C133.597 300.323 129.336 329.661 118.678 321.659C108.019 313.658 109.619 300.323 109.619 300.323C109.619 300.323 130.398 243.779 129.331 235.243C128.265 226.708 164.819 160.354 164.819 160.354L178.349 269.38C178.349 269.38 137.857 284.32 133.597 300.323Z" fill="black"/>
<path d="M132.53 300.323C132.53 300.323 128.27 329.661 117.611 321.659C106.953 313.658 108.552 300.323 108.552 300.323C108.552 300.323 129.331 243.779 128.265 235.243C127.199 226.708 163.752 160.354 163.752 160.354L177.282 269.38C177.282 269.38 136.791 284.32 132.53 300.323Z" fill="#3360FF"/>
<path d="M170.361 140.826C170.361 140.826 149.582 155.228 141.589 154.694L135.378 156.403C129.212 158.1 123.641 161.488 119.295 166.185C114.95 170.882 112.001 176.702 110.783 182.987L110.685 183.498C107.486 200.568 106.424 247.51 106.424 247.51C106.424 247.51 106.958 259.777 112.284 262.961L146.383 286.455C146.383 286.455 145.317 260.849 158.107 258.185C170.898 255.521 154.909 257.118 154.909 257.118L131.464 243.245C131.464 243.245 131.997 222.443 138.39 215.509C144.783 208.574 167.162 172.303 167.162 172.303L160.769 149.876L170.361 140.826Z" fill="#3360FF"/>
<path opacity="0.1" d="M193.272 154.699C193.272 154.699 206.367 158.168 215.524 159.849C216.957 160.112 218.307 160.71 219.465 161.596C220.622 162.481 221.554 163.628 222.184 164.943C224.948 170.725 229.162 181.171 228.437 189.889L236.429 221.361L259.346 249.097L238.562 258.714L215.131 232.579L234.306 282.209L198.604 283.782C198.604 283.782 187.945 203.766 190.611 190.432L193.272 154.699Z" fill="black"/>
<path d="M194.338 154.699C194.338 154.699 207.433 158.168 216.59 159.849C218.023 160.112 219.374 160.71 220.531 161.596C221.688 162.481 222.62 163.628 223.25 164.943C226.014 170.725 230.228 181.171 229.503 189.889L237.496 221.361L260.412 249.097L239.633 258.7L216.188 232.561L235.363 282.19L199.665 283.782C199.665 283.782 189.007 203.766 191.673 190.432L194.338 154.699Z" fill="#3360FF"/>
<path d="M168.611 139.131L175.959 175.234L163.967 181.367L157.401 148.846L168.611 139.131Z" fill="#E0E0E0"/>
<path d="M188.745 177.903L194.338 154.699L201.531 168.3L197.804 179.504L188.745 177.903Z" fill="#E0E0E0"/>
<path opacity="0.1" d="M208.991 184.837C208.991 184.837 208.991 221.108 213.784 223.777L208.991 184.837Z" fill="black"/>
<path opacity="0.1" d="M140.256 193.887C140.256 193.887 129.196 229.611 132.306 233.352L140.256 193.887Z" fill="black"/>
<path opacity="0.1" d="M138.124 242.978C138.124 242.978 159.44 256.93 162.368 257.155L138.124 242.978Z" fill="black"/>
<path opacity="0.1" d="M169.827 130.16C169.827 130.16 169.912 133.283 169.622 137.043C171.761 142.108 175.537 146.307 180.344 148.967C185.152 151.627 190.712 152.593 196.134 151.712C195.994 147.718 196.756 143.715 199.132 140.292C207.648 128.025 169.827 130.16 169.827 130.16Z" fill="black"/>
<path d="M191.673 149.9C205.21 149.9 216.184 138.913 216.184 125.361C216.184 111.809 205.21 100.823 191.673 100.823C178.136 100.823 167.162 111.809 167.162 125.361C167.162 138.913 178.136 149.9 191.673 149.9Z" fill="#FDA57D"/>
<path opacity="0.1" d="M207.223 115.047C210.193 115.445 213.976 114.452 214.547 111.512C215.272 107.79 210.3 105.374 209.533 101.679C209.243 100.275 209.589 98.8328 209.421 97.4235C209.089 94.5768 206.788 92.3857 204.45 90.7329C197.045 85.5336 188.038 83.1314 179.031 83.9533C177.918 84.061 176.744 84.2389 175.884 84.9506C174.906 85.7559 174.528 87.0622 173.859 88.1437C171.558 91.8613 166.376 92.3014 162.695 94.619C158.36 97.3299 156.218 102.653 156.022 107.766C155.825 112.879 157.284 117.893 158.725 122.8C159.95 126.976 161.236 131.26 163.925 134.678C166.615 138.096 171.081 140.484 175.299 139.454C173.363 138.049 174.771 134.814 176.866 133.681C178.961 132.548 181.543 132.351 183.362 130.778C185.181 129.205 185.7 126.639 186.276 124.303C187.015 121.353 188.081 118.366 190.228 116.212C194.446 111.952 202.036 114.349 207.223 115.047Z" fill="black"/>
<path d="M206.713 114.513C209.683 114.911 213.466 113.918 214.037 110.978C214.762 107.256 209.79 104.84 209.023 101.146C208.734 99.7411 209.08 98.299 208.911 96.8897C208.556 94.0197 206.245 91.8191 203.907 90.1757C196.507 84.978 187.506 82.5743 178.503 83.3915C177.39 83.4992 176.216 83.6771 175.355 84.3888C174.378 85.1941 173.999 86.5004 173.33 87.5819C171.029 91.2994 165.848 91.7395 162.167 94.0571C157.832 96.768 155.69 102.091 155.493 107.204C155.297 112.317 156.756 117.331 158.196 122.238C159.422 126.415 160.708 130.699 163.397 134.116C166.086 137.534 170.552 139.922 174.771 138.892C172.835 137.488 174.242 134.252 176.338 133.119C178.433 131.986 181.014 131.79 182.834 130.216C184.653 128.643 185.172 126.077 185.747 123.741C186.486 120.791 187.552 117.804 189.699 115.651C193.913 111.432 201.522 113.825 206.713 114.513Z" fill="#72351C"/>
<path opacity="0.1" d="M187.436 128.671C187.075 131.209 186.276 135.601 184.77 138.372C182.78 141.978 181.079 145.735 179.681 149.609C179.681 149.609 189.503 157.218 194.483 162.415C196.012 164.044 197.981 165.194 200.15 165.726C202.319 166.258 204.596 166.149 206.704 165.411C209.304 164.475 211.582 162.635 212.185 159.212C213.12 153.804 212.007 149.726 210.941 147.31C210.43 146.168 210.164 144.931 210.161 143.679C210.158 142.427 210.417 141.189 210.922 140.044C211.292 139.225 211.722 138.588 212.204 138.424C212.204 138.424 202.612 136.289 202.079 138.958C201.545 141.626 194.086 144.29 192.486 139.491L192.047 128.905C192.023 128.308 191.769 127.744 191.338 127.33C190.907 126.916 190.333 126.686 189.737 126.686C189.178 126.682 188.637 126.881 188.213 127.246C187.79 127.611 187.514 128.117 187.436 128.671Z" fill="black"/>
<path d="M187.436 129.205C187.075 131.743 186.276 136.134 184.77 138.906C182.78 142.511 181.079 146.269 179.681 150.143C179.681 150.143 189.503 157.751 194.483 162.948C196.012 164.578 197.981 165.728 200.15 166.26C202.319 166.792 204.596 166.682 206.704 165.945C209.304 165.008 211.582 163.168 212.185 159.746C213.12 154.338 212.007 150.26 210.941 147.844C210.425 146.7 210.155 145.46 210.15 144.205C210.144 142.95 210.402 141.707 210.908 140.559C211.278 139.74 211.708 139.103 212.19 138.939C212.19 138.939 202.598 136.804 202.064 139.473C201.531 142.141 194.086 144.829 192.472 140.044L192.033 129.458C192.009 128.861 191.755 128.296 191.324 127.883C190.893 127.469 190.319 127.238 189.722 127.239C189.169 127.237 188.633 127.435 188.214 127.796C187.794 128.157 187.517 128.657 187.436 129.205Z" fill="#72351C"/>
<path d="M377.883 280.973C377.883 280.973 368.253 271.323 364.713 258.499H365.541L365.143 257.385H365.541L364.288 253.817C367.837 250.324 370.461 246.939 370.886 245.015C371.607 241.775 372.322 224.245 372.757 212.063L373.141 212.156C374.076 210.555 374.272 208.537 374.207 206.706C374.242 204.65 373.978 202.6 373.421 200.62L371.686 183.226C371.519 181.626 371.029 180.076 370.245 178.672C369.461 177.267 368.4 176.037 367.126 175.056L349.542 161.399C350.467 160.149 351.643 159.106 352.993 158.337C353.999 157.803 355.168 157.438 355.846 156.525C357.071 154.872 356.028 152.409 356.866 150.527C357.492 149.122 359.036 148.336 359.938 147.076C361.785 144.496 360.448 140.933 359.068 138.077L351.052 121.489C348.831 116.896 346.591 112.265 343.485 108.22C333.977 95.8222 315.682 89.656 300.768 95.0309C296.516 96.562 292.602 99.5023 290.787 103.641C290.156 105.083 289.777 106.656 288.861 107.935C286.817 110.786 282.828 111.324 279.975 113.375C276.332 116.011 274.98 120.974 275.49 125.445C276 129.917 278.048 134.046 280.068 138.087C282.192 142.301 284.385 146.641 287.869 149.834C289.497 151.328 291.489 152.713 292.008 154.862C292.452 156.707 291.667 158.608 291.83 160.518C291.899 161.313 292.131 162.085 292.513 162.784C284.642 163.772 279.058 170.318 276.556 180.056C276.402 180.66 276.341 180.993 276.341 180.993L275.233 191.078C275.209 191.513 275.233 191.935 275.233 192.351C275.132 194.621 275.615 196.878 276.636 198.906V234.316L242.963 255.657C237.912 257.904 239.034 275.879 249.136 279.245C259.238 282.611 268.222 261.308 268.222 261.308C274.372 260.896 284.717 252.684 290.278 246.326C291.029 247.54 292.028 248.582 293.21 249.383C289.197 258.438 281.261 277.171 282.528 280.973C283.291 283.267 302.998 283.478 324.301 283.028C324.846 283.331 325.417 283.583 326.008 283.782C328.281 284.54 330.498 284.044 332.556 282.822C355.603 282.162 377.883 280.973 377.883 280.973ZM349.443 212.311C349.911 211.014 351.445 210.307 353.498 209.97V223.627L349.443 212.311ZM347.484 164.32L347.549 164.222L347.484 164.32Z" fill="url(#paint20_linear)"/>
<path d="M296.909 195.24C296.909 195.24 295.843 233.113 294.777 237.917C293.71 242.72 278.268 257.094 270.266 257.651C270.266 257.651 261.74 277.92 252.148 274.722C242.556 271.524 241.49 254.454 246.288 252.319L278.268 232.045V191.504L296.909 195.24Z" fill="#FDB797"/>
<path d="M296.11 241.644C296.11 241.644 282.257 271.515 283.856 276.319C285.456 281.122 374.436 276.319 374.436 276.319C374.436 276.319 357.918 259.782 361.117 241.644H296.11Z" fill="#3360FF"/>
<path d="M306.768 153.097C306.768 153.097 308.9 173.9 305.168 178.703C301.436 183.507 320.087 186.195 321.687 186.195C323.286 186.195 340.338 180.328 343.532 178.703C346.726 177.079 349.392 165.369 349.392 165.369C349.392 165.369 333.407 168.571 328.613 149.918L306.768 153.097Z" fill="#FDB797"/>
<path d="M301.184 99.7317C297.148 101.188 293.425 103.978 291.704 107.911C291.105 109.278 290.745 110.772 289.875 111.989C287.935 114.695 284.146 115.206 281.457 117.139C277.996 119.644 276.715 124.354 277.197 128.606C277.678 132.857 279.624 136.776 281.541 140.596C283.557 144.609 285.643 148.72 288.949 151.754C290.493 153.158 292.387 154.488 292.878 156.529C293.299 158.28 292.555 160.111 292.71 161.904C293.093 166.338 298.387 168.403 302.807 168.894C304.729 169.11 306.927 169.119 308.283 167.738C308.975 167.026 309.326 166.062 309.761 165.172C310.767 163.135 312.316 161.416 314.239 160.207C316.161 158.998 318.38 158.345 320.65 158.322C322.92 158.299 325.152 158.905 327.098 160.075C329.045 161.245 330.629 162.931 331.676 164.947C332.715 166.942 333.318 169.367 335.203 170.566C338.088 172.439 341.951 170.243 344.088 167.537C346.226 164.83 347.76 161.45 350.795 159.825C351.73 159.315 352.862 158.973 353.507 158.102C354.672 156.534 353.681 154.193 354.476 152.409C355.074 151.065 356.538 150.33 357.394 149.132C359.148 146.683 357.862 143.298 356.566 140.587L348.952 124.832C346.843 120.468 344.715 116.072 341.769 112.228C332.719 100.485 315.345 94.6283 301.184 99.7317Z" fill="#E2BB2E"/>
<path opacity="0.1" d="M320.62 182.435C320.62 182.435 341.399 182.435 346.731 163.239L364.222 176.816C365.43 177.754 366.434 178.927 367.174 180.266C367.913 181.605 368.373 183.08 368.525 184.603L370.175 201.121C370.175 201.121 372.046 207.254 369.909 210.99C369.909 210.99 347.797 205.372 347.264 211.791L362.697 254.997C362.697 254.997 338.72 255.53 332.326 251.251C332.326 251.251 306.216 256.584 299.823 250.717C293.43 244.851 287.037 245.385 292.34 232.045C292.34 232.045 281.682 221.375 286.48 206.44C291.278 191.504 286.747 206.706 286.747 206.706C286.747 206.706 276.397 201.64 276.93 192.014L277.996 182.411C277.996 182.411 278.052 182.093 278.202 181.522C281.452 168.88 290.179 161.857 302.451 166.333C306.038 167.635 309.705 166.141 309.705 166.141C309.705 166.141 305.702 183.502 320.62 182.435Z" fill="black"/>
<path d="M320.62 181.367C320.62 181.367 341.399 181.367 346.731 162.171L364.222 175.749C365.43 176.686 366.434 177.86 367.174 179.199C367.913 180.537 368.373 182.013 368.525 183.535L370.175 200.053C370.175 200.053 372.046 206.187 369.909 209.923C369.909 209.923 347.797 204.305 347.264 210.724L362.697 253.929C362.697 253.929 338.72 254.463 332.326 250.184C332.326 250.184 306.216 255.516 299.823 249.65C293.43 243.783 287.037 244.317 292.34 230.978C292.34 230.978 281.682 220.308 286.48 205.372C291.278 190.436 286.747 205.639 286.747 205.639C286.747 205.639 276.397 200.573 276.93 190.97L277.996 181.367C277.996 181.367 278.052 181.049 278.202 180.478C281.452 167.836 290.179 160.813 302.451 165.289C306.038 166.591 309.705 165.097 309.705 165.097C309.705 165.097 305.702 182.435 320.62 181.367Z" fill="#252A62"/>
<path d="M369.909 199.506C369.909 199.506 368.843 237.378 367.776 242.182C366.71 246.986 351.258 261.378 343.265 261.917C343.265 261.917 334.74 282.185 325.148 278.987C315.556 275.79 314.489 258.719 319.288 256.584L351.258 236.316V195.76L369.909 199.506Z" fill="#FDB797"/>
<path opacity="0.1" d="M347.016 200.84C347.016 200.84 359.269 209.164 369.932 208.472C369.932 208.472 370.999 194.173 367.8 193.372C364.601 192.571 350.725 193.372 347.016 200.84Z" fill="black"/>
<path d="M347.016 200.306C347.016 200.306 359.269 208.631 369.932 207.938C369.932 207.938 370.999 193.639 367.8 192.838C364.601 192.038 350.725 192.838 347.016 200.306Z" fill="#252A62"/>
<path opacity="0.1" d="M329.679 150.962L307.834 154.165C307.834 154.165 308.325 158.978 308.424 164.507C312.671 166.301 317.336 166.859 321.886 166.119C326.436 165.378 330.685 163.369 334.146 160.322C332.303 158.07 330.727 155.026 329.679 150.962Z" fill="black"/>
<path d="M316.893 165.369C330.43 165.369 341.404 154.383 341.404 140.83C341.404 127.278 330.43 116.292 316.893 116.292C303.356 116.292 292.382 127.278 292.382 140.83C292.382 154.383 303.356 165.369 316.893 165.369Z" fill="#FDB797"/>
<path opacity="0.1" d="M323.352 136.111C322.308 136.504 321.19 136.664 320.078 136.579C315.744 136.551 311.412 136.395 307.081 136.111C303.807 135.891 300.3 135.502 297.77 133.4C294.365 130.591 293.827 125.267 295.586 121.203C297.344 117.139 300.931 114.143 304.719 111.839C306.859 110.488 309.176 109.442 311.604 108.731C318.619 106.82 326.401 109.166 331.98 113.848C337.56 118.53 341.119 125.291 343.003 132.333C343.654 134.767 344.491 137.67 346.899 138.419C345.295 141.088 341.381 141.514 338.575 140.175C334.431 138.204 332.308 130.656 328.59 129.467C324.441 128.133 326.855 134.5 323.352 136.111Z" fill="#F83A3A"/>
<path d="M323.352 135.577C322.308 135.97 321.19 136.13 320.078 136.045C315.744 136.017 311.412 135.861 307.081 135.577C303.807 135.357 300.3 134.969 297.77 132.866C294.365 130.057 293.827 124.734 295.586 120.67C297.344 116.606 300.931 113.609 304.719 111.306C306.858 109.958 309.173 108.915 311.599 108.206C318.614 106.296 326.396 108.642 331.976 113.324C337.555 118.006 341.114 124.766 342.999 131.808C343.649 134.243 344.486 137.146 346.895 137.895C345.29 140.564 341.376 140.99 338.57 139.651C334.426 137.679 332.303 130.132 328.585 128.943C324.441 127.599 326.855 133.957 323.352 135.577Z" fill="#E2BB2E"/>
<path opacity="0.1" d="M292.116 230.711C300.107 228.573 308.345 227.497 316.617 227.509L292.116 230.711Z" fill="black"/>
<path opacity="0.1" d="M347.016 201.907C347.016 201.907 339.024 207.774 341.156 210.976L347.016 201.907Z" fill="black"/>
<g opacity="0.7">
<path opacity="0.7" d="M401.879 260.049H140.256V282.953H155.484V287.42V355H387.194V287.42V282.953H401.879V260.049Z" fill="url(#paint21_linear)"/>
</g>
<path d="M384.828 273.388H157.841V355.005H384.828V273.388Z" fill="#E0E0E0"/>
<path opacity="0.1" d="M384.828 277.653H157.841V290.454H384.828V277.653Z" fill="black"/>
<path d="M399.214 264.319H142.922V286.188H399.214V264.319Z" fill="#E0E0E0"/>
<path d="M225.635 258.934H182.693C181.014 258.934 179.653 260.297 179.653 261.978V262.825C179.653 264.506 181.014 265.868 182.693 265.868H225.635C227.314 265.868 228.675 264.506 228.675 262.825V261.978C228.675 260.297 227.314 258.934 225.635 258.934Z" fill="#535461"/>
<g opacity="0.7">
<path opacity="0.7" d="M318.132 181.62H222.689C215.4 181.62 209.491 187.536 209.491 194.833V252.745C209.491 260.042 215.4 265.957 222.689 265.957H318.132C325.421 265.957 331.33 260.042 331.33 252.745V194.833C331.33 187.536 325.421 181.62 318.132 181.62Z" fill="url(#paint22_linear)"/>
</g>
<path d="M314.527 183.175H224.214C217.281 183.175 211.661 188.801 211.661 195.741V253.386C211.661 260.326 217.281 265.953 224.214 265.953H314.527C321.459 265.953 327.079 260.326 327.079 253.386V195.741C327.079 188.801 321.459 183.175 314.527 183.175Z" fill="#3E3F49"/>
<path d="M316.126 183.175H225.813C218.881 183.175 213.261 188.801 213.261 195.741V253.386C213.261 260.326 218.881 265.953 225.813 265.953H316.126C323.059 265.953 328.679 260.326 328.679 253.386V195.741C328.679 188.801 323.059 183.175 316.126 183.175Z" fill="#535461"/>
<path d="M276.359 227.733C278.421 227.733 280.092 226.061 280.092 223.997C280.092 221.934 278.421 220.261 276.359 220.261C274.298 220.261 272.627 221.934 272.627 223.997C272.627 226.061 274.298 227.733 276.359 227.733Z" fill="#E0E0E0"/>
<path opacity="0.1" d="M123.738 274.984C123.738 274.984 126.89 279.615 136.239 281.034L123.738 274.984Z" fill="black"/>
</g>
<defs>
<linearGradient id="paint0_linear" x1="123.747" y1="317.015" x2="182.586" y2="317.015" gradientUnits="userSpaceOnUse">
<stop stop-color="#808080" stop-opacity="0.25"/>
<stop offset="0.54" stop-color="#808080" stop-opacity="0.12"/>
<stop offset="1" stop-color="#808080" stop-opacity="0.1"/>
</linearGradient>
<linearGradient id="paint1_linear" x1="33252.7" y1="77001.3" x2="47430.5" y2="77001.3" gradientUnits="userSpaceOnUse">
<stop stop-color="#808080" stop-opacity="0.25"/>
<stop offset="0.54" stop-color="#808080" stop-opacity="0.12"/>
<stop offset="1" stop-color="#808080" stop-opacity="0.1"/>
</linearGradient>
<linearGradient id="paint2_linear" x1="33252.7" y1="76699.6" x2="47430.5" y2="76699.6" gradientUnits="userSpaceOnUse">
<stop stop-color="#808080" stop-opacity="0.25"/>
<stop offset="0.54" stop-color="#808080" stop-opacity="0.12"/>
<stop offset="1" stop-color="#808080" stop-opacity="0.1"/>
</linearGradient>
<linearGradient id="paint3_linear" x1="18896.7" y1="21806.6" x2="22600" y2="21806.6" gradientUnits="userSpaceOnUse">
<stop stop-color="#808080" stop-opacity="0.25"/>
<stop offset="0.54" stop-color="#808080" stop-opacity="0.12"/>
<stop offset="1" stop-color="#808080" stop-opacity="0.1"/>
</linearGradient>
<linearGradient id="paint4_linear" x1="23945.7" y1="98194.4" x2="34932.2" y2="98194.4" gradientUnits="userSpaceOnUse">
<stop stop-color="#808080" stop-opacity="0.25"/>
<stop offset="0.54" stop-color="#808080" stop-opacity="0.12"/>
<stop offset="1" stop-color="#808080" stop-opacity="0.1"/>
</linearGradient>
<linearGradient id="paint5_linear" x1="23773.2" y1="98194.4" x2="34759" y2="98194.4" gradientUnits="userSpaceOnUse">
<stop stop-color="#808080" stop-opacity="0.25"/>
<stop offset="0.54" stop-color="#808080" stop-opacity="0.12"/>
<stop offset="1" stop-color="#808080" stop-opacity="0.1"/>
</linearGradient>
<linearGradient id="paint6_linear" x1="21796.3" y1="78634.8" x2="31282.4" y2="78634.8" gradientUnits="userSpaceOnUse">
<stop stop-color="#808080" stop-opacity="0.25"/>
<stop offset="0.54" stop-color="#808080" stop-opacity="0.12"/>
<stop offset="1" stop-color="#808080" stop-opacity="0.1"/>
</linearGradient>
<linearGradient id="paint7_linear" x1="37089.6" y1="71377.5" x2="48186.4" y2="71377.5" gradientUnits="userSpaceOnUse">
<stop stop-color="#808080" stop-opacity="0.25"/>
<stop offset="0.54" stop-color="#808080" stop-opacity="0.12"/>
<stop offset="1" stop-color="#808080" stop-opacity="0.1"/>
</linearGradient>
<linearGradient id="paint8_linear" x1="37259.8" y1="71377.5" x2="48355.8" y2="71377.5" gradientUnits="userSpaceOnUse">
<stop stop-color="#808080" stop-opacity="0.25"/>
<stop offset="0.54" stop-color="#808080" stop-opacity="0.12"/>
<stop offset="1" stop-color="#808080" stop-opacity="0.1"/>
</linearGradient>
<linearGradient id="paint9_linear" x1="6616.87" y1="14713.7" x2="7415.74" y2="14713.7" gradientUnits="userSpaceOnUse">
<stop stop-color="#808080" stop-opacity="0.25"/>
<stop offset="0.54" stop-color="#808080" stop-opacity="0.12"/>
<stop offset="1" stop-color="#808080" stop-opacity="0.1"/>
</linearGradient>
<linearGradient id="paint10_linear" x1="5572.58" y1="9098.12" x2="5952.18" y2="9098.12" gradientUnits="userSpaceOnUse">
<stop stop-color="#808080" stop-opacity="0.25"/>
<stop offset="0.54" stop-color="#808080" stop-opacity="0.12"/>
<stop offset="1" stop-color="#808080" stop-opacity="0.1"/>
</linearGradient>
<linearGradient id="paint11_linear" x1="2977.92" y1="20349.3" x2="3031.27" y2="20349.3" gradientUnits="userSpaceOnUse">
<stop stop-color="#808080" stop-opacity="0.25"/>
<stop offset="0.54" stop-color="#808080" stop-opacity="0.12"/>
<stop offset="1" stop-color="#808080" stop-opacity="0.1"/>
</linearGradient>
<linearGradient id="paint12_linear" x1="3507.9" y1="21465.8" x2="3674.98" y2="21465.8" gradientUnits="userSpaceOnUse">
<stop stop-color="#808080" stop-opacity="0.25"/>
<stop offset="0.54" stop-color="#808080" stop-opacity="0.12"/>
<stop offset="1" stop-color="#808080" stop-opacity="0.1"/>
</linearGradient>
<linearGradient id="paint13_linear" x1="10144.9" y1="9053.92" x2="11508.6" y2="9053.92" gradientUnits="userSpaceOnUse">
<stop stop-color="#808080" stop-opacity="0.25"/>
<stop offset="0.54" stop-color="#808080" stop-opacity="0.12"/>
<stop offset="1" stop-color="#808080" stop-opacity="0.1"/>
</linearGradient>
<linearGradient id="paint14_linear" x1="15116.6" y1="8378.2" x2="17311.9" y2="8378.2" gradientUnits="userSpaceOnUse">
<stop stop-color="#808080" stop-opacity="0.25"/>
<stop offset="0.54" stop-color="#808080" stop-opacity="0.12"/>
<stop offset="1" stop-color="#808080" stop-opacity="0.1"/>
</linearGradient>
<linearGradient id="paint15_linear" x1="18343.7" y1="13156.7" x2="23918.5" y2="13156.7" gradientUnits="userSpaceOnUse">
<stop stop-color="#808080" stop-opacity="0.25"/>
<stop offset="0.54" stop-color="#808080" stop-opacity="0.12"/>
<stop offset="1" stop-color="#808080" stop-opacity="0.1"/>
</linearGradient>
<linearGradient id="paint16_linear" x1="26782.5" y1="17307.1" x2="34753.7" y2="17307.1" gradientUnits="userSpaceOnUse">
<stop stop-color="#808080" stop-opacity="0.25"/>
<stop offset="0.54" stop-color="#808080" stop-opacity="0.12"/>
<stop offset="1" stop-color="#808080" stop-opacity="0.1"/>
</linearGradient>
<linearGradient id="paint17_linear" x1="26701.1" y1="17238.1" x2="34670" y2="17238.1" gradientUnits="userSpaceOnUse">
<stop stop-color="#808080" stop-opacity="0.25"/>
<stop offset="0.54" stop-color="#808080" stop-opacity="0.12"/>
<stop offset="1" stop-color="#808080" stop-opacity="0.1"/>
</linearGradient>
<linearGradient id="paint18_linear" x1="16921.9" y1="15353.9" x2="19428.4" y2="15353.9" gradientUnits="userSpaceOnUse">
<stop stop-color="#808080" stop-opacity="0.25"/>
<stop offset="0.54" stop-color="#808080" stop-opacity="0.12"/>
<stop offset="1" stop-color="#808080" stop-opacity="0.1"/>
</linearGradient>
<linearGradient id="paint19_linear" x1="16921.9" y1="15401.9" x2="19428.4" y2="15401.9" gradientUnits="userSpaceOnUse">
<stop stop-color="#808080" stop-opacity="0.25"/>
<stop offset="0.54" stop-color="#808080" stop-opacity="0.12"/>
<stop offset="1" stop-color="#808080" stop-opacity="0.1"/>
</linearGradient>
<linearGradient id="paint20_linear" x1="105785" y1="129583" x2="105785" y2="51620.5" gradientUnits="userSpaceOnUse">
<stop stop-color="#808080" stop-opacity="0.25"/>
<stop offset="0.54" stop-color="#808080" stop-opacity="0.12"/>
<stop offset="1" stop-color="#808080" stop-opacity="0.1"/>
</linearGradient>
<linearGradient id="paint21_linear" x1="151777" y1="72254.1" x2="151777" y2="52997.9" gradientUnits="userSpaceOnUse">
<stop stop-color="#808080" stop-opacity="0.25"/>
<stop offset="0.54" stop-color="#808080" stop-opacity="0.12"/>
<stop offset="1" stop-color="#808080" stop-opacity="0.1"/>
</linearGradient>
<linearGradient id="paint22_linear" x1="70656.9" y1="48088.6" x2="70656.9" y2="32896.9" gradientUnits="userSpaceOnUse">
<stop stop-color="#808080" stop-opacity="0.25"/>
<stop offset="0.54" stop-color="#808080" stop-opacity="0.12"/>
<stop offset="1" stop-color="#808080" stop-opacity="0.1"/>
</linearGradient>
<clipPath id="clip0">
<path d="M0 0H463V355H0V0Z" fill="white"/>
</clipPath>
</defs>
</svg>
